ISO-10303-21;
HEADER;
/* Generated by software containing ST-Developer
 * from STEP Tools, Inc. (www.steptools.com) 
 */
/* OPTION: using custom renumber hook */

FILE_DESCRIPTION(
/* description */ ('STEP AP242 Edition 2',
'CAx-IF Rec.Pracs.---Representation and Presentation of Product Manufa
cturing Information (PMI)---4.0---2014-10-13',
'CAx-IF Rec.Pracs.---3D Tessellated Geometry---0.4---2014-09-14','2;1',
'CAx-IF Rec.Pracs.---User Defined Attributes---1.5---2016-08-15'),
/* implementation_level */ '2;1');

FILE_NAME(
/* name */ '4_0 inch tft and case - top case',
/* time_stamp */ '2026-06-21T03:14:20Z',
/* author */ (''),
/* organization */ (''),
/* preprocessor_version */ 'ST-DEVELOPER v20',
/* originating_system */ 'ONSHAPE BY PTC INC, 1.216',
/* authorisation */ '  ');

FILE_SCHEMA (('AP242_MANAGED_MODEL_BASED_3D_ENGINEERING_MIM_LF { 1 0 10303 442 3 1 4 }'));
ENDSEC;

DATA;
#10=SHAPE_REPRESENTATION_RELATIONSHIP('','',#891,#11);
#11=ADVANCED_BREP_SHAPE_REPRESENTATION('',(#889),#1565);
#12=TOROIDAL_SURFACE('',#1004,0.004,0.002);
#13=TOROIDAL_SURFACE('',#1006,0.004,0.002);
#14=TOROIDAL_SURFACE('',#1016,0.004,0.002);
#15=TOROIDAL_SURFACE('',#1018,0.004,0.002);
#16=SPHERICAL_SURFACE('',#980,0.002);
#17=SPHERICAL_SURFACE('',#982,0.002);
#18=SPHERICAL_SURFACE('',#992,0.002);
#19=SPHERICAL_SURFACE('',#994,0.002);
#20=CONICAL_SURFACE('',#963,0.002,0.785398163397449);
#21=CONICAL_SURFACE('',#964,0.002,0.785398163397449);
#22=CONICAL_SURFACE('',#965,0.002,0.785398163397449);
#23=CONICAL_SURFACE('',#966,0.002,0.785398163397449);
#24=CYLINDRICAL_SURFACE('',#931,0.0035);
#25=CYLINDRICAL_SURFACE('',#935,0.0035);
#26=CYLINDRICAL_SURFACE('',#939,0.0035);
#27=CYLINDRICAL_SURFACE('',#943,0.0035);
#28=CYLINDRICAL_SURFACE('',#949,0.002);
#29=CYLINDRICAL_SURFACE('',#953,0.002);
#30=CYLINDRICAL_SURFACE('',#957,0.002);
#31=CYLINDRICAL_SURFACE('',#961,0.002);
#32=CYLINDRICAL_SURFACE('',#967,0.00425);
#33=CYLINDRICAL_SURFACE('',#968,0.00425);
#34=CYLINDRICAL_SURFACE('',#969,0.00425);
#35=CYLINDRICAL_SURFACE('',#970,0.00425);
#36=CYLINDRICAL_SURFACE('',#971,0.00425);
#37=CYLINDRICAL_SURFACE('',#972,0.00425);
#38=CYLINDRICAL_SURFACE('',#973,0.002);
#39=CYLINDRICAL_SURFACE('',#975,0.002);
#40=CYLINDRICAL_SURFACE('',#977,0.002);
#41=CYLINDRICAL_SURFACE('',#984,0.002);
#42=CYLINDRICAL_SURFACE('',#986,0.002);
#43=CYLINDRICAL_SURFACE('',#988,0.002);
#44=CYLINDRICAL_SURFACE('',#990,0.002);
#45=CYLINDRICAL_SURFACE('',#996,0.002);
#46=CYLINDRICAL_SURFACE('',#997,0.002);
#47=CYLINDRICAL_SURFACE('',#999,0.002);
#48=CYLINDRICAL_SURFACE('',#1001,0.002);
#49=CYLINDRICAL_SURFACE('',#1008,0.002);
#50=CYLINDRICAL_SURFACE('',#1010,0.002);
#51=CYLINDRICAL_SURFACE('',#1012,0.002);
#52=CYLINDRICAL_SURFACE('',#1014,0.002);
#53=CYLINDRICAL_SURFACE('',#1020,0.002);
#54=CIRCLE('',#894,0.00425);
#55=CIRCLE('',#895,0.00425);
#56=CIRCLE('',#896,0.00425);
#57=CIRCLE('',#897,0.00425);
#58=CIRCLE('',#898,0.00425);
#59=CIRCLE('',#899,0.00425);
#60=CIRCLE('',#900,0.004);
#61=CIRCLE('',#901,0.004);
#62=CIRCLE('',#902,0.004);
#63=CIRCLE('',#903,0.004);
#64=CIRCLE('',#905,0.00425);
#65=CIRCLE('',#906,0.00425);
#66=CIRCLE('',#907,0.00425);
#67=CIRCLE('',#908,0.00425);
#68=CIRCLE('',#909,0.00425);
#69=CIRCLE('',#910,0.0035);
#70=CIRCLE('',#911,0.0035);
#71=CIRCLE('',#912,0.0035);
#72=CIRCLE('',#913,0.0035);
#73=CIRCLE('',#914,0.002);
#74=CIRCLE('',#915,0.002);
#75=CIRCLE('',#916,0.002);
#76=CIRCLE('',#917,0.002);
#77=CIRCLE('',#918,0.002);
#78=CIRCLE('',#919,0.002);
#79=CIRCLE('',#920,0.002);
#80=CIRCLE('',#921,0.002);
#81=CIRCLE('',#922,0.00425);
#82=CIRCLE('',#932,0.0035);
#83=CIRCLE('',#934,0.003);
#84=CIRCLE('',#936,0.0035);
#85=CIRCLE('',#938,0.003);
#86=CIRCLE('',#940,0.0035);
#87=CIRCLE('',#942,0.003);
#88=CIRCLE('',#944,0.0035);
#89=CIRCLE('',#946,0.003);
#90=CIRCLE('',#948,0.002);
#91=CIRCLE('',#950,0.002);
#92=CIRCLE('',#952,0.002);
#93=CIRCLE('',#954,0.002);
#94=CIRCLE('',#956,0.002);
#95=CIRCLE('',#958,0.002);
#96=CIRCLE('',#960,0.002);
#97=CIRCLE('',#962,0.002);
#98=CIRCLE('',#974,0.002);
#99=CIRCLE('',#976,0.002);
#100=CIRCLE('',#978,0.002);
#101=CIRCLE('',#979,0.002);
#102=CIRCLE('',#981,0.002);
#103=CIRCLE('',#983,0.002);
#104=CIRCLE('',#985,0.002);
#105=CIRCLE('',#987,0.002);
#106=CIRCLE('',#989,0.002);
#107=CIRCLE('',#991,0.002);
#108=CIRCLE('',#993,0.002);
#109=CIRCLE('',#995,0.002);
#110=CIRCLE('',#998,0.002);
#111=CIRCLE('',#1000,0.002);
#112=CIRCLE('',#1002,0.002);
#113=CIRCLE('',#1003,0.002);
#114=CIRCLE('',#1005,0.002);
#115=CIRCLE('',#1007,0.002);
#116=CIRCLE('',#1009,0.002);
#117=CIRCLE('',#1011,0.002);
#118=CIRCLE('',#1013,0.002);
#119=CIRCLE('',#1015,0.002);
#120=CIRCLE('',#1017,0.002);
#121=CIRCLE('',#1019,0.002);
#122=ORIENTED_EDGE('',*,*,#338,.T.);
#123=ORIENTED_EDGE('',*,*,#339,.T.);
#124=ORIENTED_EDGE('',*,*,#340,.T.);
#125=ORIENTED_EDGE('',*,*,#341,.T.);
#126=ORIENTED_EDGE('',*,*,#342,.T.);
#127=ORIENTED_EDGE('',*,*,#343,.F.);
#128=ORIENTED_EDGE('',*,*,#344,.F.);
#129=ORIENTED_EDGE('',*,*,#345,.F.);
#130=ORIENTED_EDGE('',*,*,#346,.F.);
#131=ORIENTED_EDGE('',*,*,#347,.F.);
#132=ORIENTED_EDGE('',*,*,#348,.F.);
#133=ORIENTED_EDGE('',*,*,#349,.T.);
#134=ORIENTED_EDGE('',*,*,#350,.F.);
#135=ORIENTED_EDGE('',*,*,#351,.T.);
#136=ORIENTED_EDGE('',*,*,#352,.F.);
#137=ORIENTED_EDGE('',*,*,#353,.T.);
#138=ORIENTED_EDGE('',*,*,#354,.F.);
#139=ORIENTED_EDGE('',*,*,#355,.T.);
#140=ORIENTED_EDGE('',*,*,#356,.F.);
#141=ORIENTED_EDGE('',*,*,#357,.F.);
#142=ORIENTED_EDGE('',*,*,#358,.F.);
#143=ORIENTED_EDGE('',*,*,#359,.F.);
#144=ORIENTED_EDGE('',*,*,#360,.F.);
#145=ORIENTED_EDGE('',*,*,#361,.F.);
#146=ORIENTED_EDGE('',*,*,#362,.F.);
#147=ORIENTED_EDGE('',*,*,#363,.F.);
#148=ORIENTED_EDGE('',*,*,#364,.F.);
#149=ORIENTED_EDGE('',*,*,#365,.F.);
#150=ORIENTED_EDGE('',*,*,#366,.T.);
#151=ORIENTED_EDGE('',*,*,#367,.T.);
#152=ORIENTED_EDGE('',*,*,#368,.T.);
#153=ORIENTED_EDGE('',*,*,#369,.T.);
#154=ORIENTED_EDGE('',*,*,#370,.T.);
#155=ORIENTED_EDGE('',*,*,#371,.F.);
#156=ORIENTED_EDGE('',*,*,#372,.T.);
#157=ORIENTED_EDGE('',*,*,#373,.T.);
#158=ORIENTED_EDGE('',*,*,#374,.T.);
#159=ORIENTED_EDGE('',*,*,#375,.T.);
#160=ORIENTED_EDGE('',*,*,#376,.T.);
#161=ORIENTED_EDGE('',*,*,#377,.T.);
#162=ORIENTED_EDGE('',*,*,#378,.T.);
#163=ORIENTED_EDGE('',*,*,#379,.T.);
#164=ORIENTED_EDGE('',*,*,#380,.T.);
#165=ORIENTED_EDGE('',*,*,#381,.T.);
#166=ORIENTED_EDGE('',*,*,#382,.T.);
#167=ORIENTED_EDGE('',*,*,#383,.T.);
#168=ORIENTED_EDGE('',*,*,#375,.F.);
#169=ORIENTED_EDGE('',*,*,#384,.T.);
#170=ORIENTED_EDGE('',*,*,#373,.F.);
#171=ORIENTED_EDGE('',*,*,#385,.T.);
#172=ORIENTED_EDGE('',*,*,#386,.T.);
#173=ORIENTED_EDGE('',*,*,#387,.T.);
#174=ORIENTED_EDGE('',*,*,#379,.F.);
#175=ORIENTED_EDGE('',*,*,#388,.T.);
#176=ORIENTED_EDGE('',*,*,#389,.T.);
#177=ORIENTED_EDGE('',*,*,#390,.T.);
#178=ORIENTED_EDGE('',*,*,#367,.F.);
#179=ORIENTED_EDGE('',*,*,#391,.T.);
#180=ORIENTED_EDGE('',*,*,#392,.T.);
#181=ORIENTED_EDGE('',*,*,#393,.T.);
#182=ORIENTED_EDGE('',*,*,#394,.T.);
#183=ORIENTED_EDGE('',*,*,#395,.T.);
#184=ORIENTED_EDGE('',*,*,#365,.T.);
#185=ORIENTED_EDGE('',*,*,#396,.T.);
#186=ORIENTED_EDGE('',*,*,#371,.T.);
#187=ORIENTED_EDGE('',*,*,#397,.T.);
#188=ORIENTED_EDGE('',*,*,#398,.T.);
#189=ORIENTED_EDGE('',*,*,#399,.T.);
#190=ORIENTED_EDGE('',*,*,#369,.F.);
#191=ORIENTED_EDGE('',*,*,#400,.T.);
#192=ORIENTED_EDGE('',*,*,#401,.T.);
#193=ORIENTED_EDGE('',*,*,#402,.T.);
#194=ORIENTED_EDGE('',*,*,#377,.F.);
#195=ORIENTED_EDGE('',*,*,#403,.T.);
#196=ORIENTED_EDGE('',*,*,#404,.T.);
#197=ORIENTED_EDGE('',*,*,#405,.T.);
#198=ORIENTED_EDGE('',*,*,#406,.F.);
#199=ORIENTED_EDGE('',*,*,#364,.T.);
#200=ORIENTED_EDGE('',*,*,#407,.T.);
#201=ORIENTED_EDGE('',*,*,#406,.T.);
#202=ORIENTED_EDGE('',*,*,#408,.F.);
#203=ORIENTED_EDGE('',*,*,#363,.T.);
#204=ORIENTED_EDGE('',*,*,#409,.T.);
#205=ORIENTED_EDGE('',*,*,#408,.T.);
#206=ORIENTED_EDGE('',*,*,#410,.F.);
#207=ORIENTED_EDGE('',*,*,#362,.T.);
#208=ORIENTED_EDGE('',*,*,#411,.T.);
#209=ORIENTED_EDGE('',*,*,#410,.T.);
#210=ORIENTED_EDGE('',*,*,#412,.F.);
#211=ORIENTED_EDGE('',*,*,#361,.T.);
#212=ORIENTED_EDGE('',*,*,#413,.T.);
#213=ORIENTED_EDGE('',*,*,#412,.T.);
#214=ORIENTED_EDGE('',*,*,#414,.F.);
#215=ORIENTED_EDGE('',*,*,#415,.T.);
#216=ORIENTED_EDGE('',*,*,#414,.T.);
#217=ORIENTED_EDGE('',*,*,#416,.F.);
#218=ORIENTED_EDGE('',*,*,#417,.T.);
#219=ORIENTED_EDGE('',*,*,#416,.T.);
#220=ORIENTED_EDGE('',*,*,#418,.F.);
#221=ORIENTED_EDGE('',*,*,#419,.T.);
#222=ORIENTED_EDGE('',*,*,#418,.T.);
#223=ORIENTED_EDGE('',*,*,#420,.F.);
#224=ORIENTED_EDGE('',*,*,#421,.T.);
#225=ORIENTED_EDGE('',*,*,#420,.T.);
#226=ORIENTED_EDGE('',*,*,#411,.F.);
#227=ORIENTED_EDGE('',*,*,#419,.F.);
#228=ORIENTED_EDGE('',*,*,#413,.F.);
#229=ORIENTED_EDGE('',*,*,#421,.F.);
#230=ORIENTED_EDGE('',*,*,#407,.F.);
#231=ORIENTED_EDGE('',*,*,#415,.F.);
#232=ORIENTED_EDGE('',*,*,#409,.F.);
#233=ORIENTED_EDGE('',*,*,#417,.F.);
#234=ORIENTED_EDGE('',*,*,#346,.T.);
#235=ORIENTED_EDGE('',*,*,#360,.T.);
#236=ORIENTED_EDGE('',*,*,#345,.T.);
#237=ORIENTED_EDGE('',*,*,#359,.T.);
#238=ORIENTED_EDGE('',*,*,#344,.T.);
#239=ORIENTED_EDGE('',*,*,#358,.T.);
#240=ORIENTED_EDGE('',*,*,#343,.T.);
#241=ORIENTED_EDGE('',*,*,#357,.T.);
#242=ORIENTED_EDGE('',*,*,#342,.F.);
#243=ORIENTED_EDGE('',*,*,#381,.F.);
#244=ORIENTED_EDGE('',*,*,#347,.T.);
#245=ORIENTED_EDGE('',*,*,#356,.T.);
#246=ORIENTED_EDGE('',*,*,#366,.F.);
#247=ORIENTED_EDGE('',*,*,#395,.F.);
#248=ORIENTED_EDGE('',*,*,#422,.F.);
#249=ORIENTED_EDGE('',*,*,#391,.F.);
#250=ORIENTED_EDGE('',*,*,#372,.F.);
#251=ORIENTED_EDGE('',*,*,#399,.F.);
#252=ORIENTED_EDGE('',*,*,#423,.F.);
#253=ORIENTED_EDGE('',*,*,#396,.F.);
#254=ORIENTED_EDGE('',*,*,#424,.F.);
#255=ORIENTED_EDGE('',*,*,#394,.F.);
#256=ORIENTED_EDGE('',*,*,#425,.F.);
#257=ORIENTED_EDGE('',*,*,#341,.F.);
#258=ORIENTED_EDGE('',*,*,#422,.T.);
#259=ORIENTED_EDGE('',*,*,#424,.T.);
#260=ORIENTED_EDGE('',*,*,#426,.F.);
#261=ORIENTED_EDGE('',*,*,#425,.T.);
#262=ORIENTED_EDGE('',*,*,#423,.T.);
#263=ORIENTED_EDGE('',*,*,#427,.F.);
#264=ORIENTED_EDGE('',*,*,#426,.T.);
#265=ORIENTED_EDGE('',*,*,#340,.F.);
#266=ORIENTED_EDGE('',*,*,#428,.F.);
#267=ORIENTED_EDGE('',*,*,#392,.F.);
#268=ORIENTED_EDGE('',*,*,#368,.F.);
#269=ORIENTED_EDGE('',*,*,#393,.F.);
#270=ORIENTED_EDGE('',*,*,#429,.F.);
#271=ORIENTED_EDGE('',*,*,#400,.F.);
#272=ORIENTED_EDGE('',*,*,#370,.F.);
#273=ORIENTED_EDGE('',*,*,#402,.F.);
#274=ORIENTED_EDGE('',*,*,#430,.F.);
#275=ORIENTED_EDGE('',*,*,#397,.F.);
#276=ORIENTED_EDGE('',*,*,#427,.T.);
#277=ORIENTED_EDGE('',*,*,#398,.F.);
#278=ORIENTED_EDGE('',*,*,#431,.F.);
#279=ORIENTED_EDGE('',*,*,#338,.F.);
#280=ORIENTED_EDGE('',*,*,#429,.T.);
#281=ORIENTED_EDGE('',*,*,#428,.T.);
#282=ORIENTED_EDGE('',*,*,#432,.F.);
#283=ORIENTED_EDGE('',*,*,#431,.T.);
#284=ORIENTED_EDGE('',*,*,#430,.T.);
#285=ORIENTED_EDGE('',*,*,#433,.F.);
#286=ORIENTED_EDGE('',*,*,#432,.T.);
#287=ORIENTED_EDGE('',*,*,#339,.F.);
#288=ORIENTED_EDGE('',*,*,#433,.T.);
#289=ORIENTED_EDGE('',*,*,#401,.F.);
#290=ORIENTED_EDGE('',*,*,#376,.F.);
#291=ORIENTED_EDGE('',*,*,#383,.F.);
#292=ORIENTED_EDGE('',*,*,#434,.F.);
#293=ORIENTED_EDGE('',*,*,#403,.F.);
#294=ORIENTED_EDGE('',*,*,#374,.F.);
#295=ORIENTED_EDGE('',*,*,#387,.F.);
#296=ORIENTED_EDGE('',*,*,#435,.F.);
#297=ORIENTED_EDGE('',*,*,#384,.F.);
#298=ORIENTED_EDGE('',*,*,#436,.F.);
#299=ORIENTED_EDGE('',*,*,#353,.F.);
#300=ORIENTED_EDGE('',*,*,#437,.F.);
#301=ORIENTED_EDGE('',*,*,#382,.F.);
#302=ORIENTED_EDGE('',*,*,#437,.T.);
#303=ORIENTED_EDGE('',*,*,#352,.T.);
#304=ORIENTED_EDGE('',*,*,#438,.F.);
#305=ORIENTED_EDGE('',*,*,#434,.T.);
#306=ORIENTED_EDGE('',*,*,#436,.T.);
#307=ORIENTED_EDGE('',*,*,#435,.T.);
#308=ORIENTED_EDGE('',*,*,#439,.F.);
#309=ORIENTED_EDGE('',*,*,#354,.T.);
#310=ORIENTED_EDGE('',*,*,#438,.T.);
#311=ORIENTED_EDGE('',*,*,#351,.F.);
#312=ORIENTED_EDGE('',*,*,#440,.F.);
#313=ORIENTED_EDGE('',*,*,#404,.F.);
#314=ORIENTED_EDGE('',*,*,#378,.F.);
#315=ORIENTED_EDGE('',*,*,#405,.F.);
#316=ORIENTED_EDGE('',*,*,#441,.F.);
#317=ORIENTED_EDGE('',*,*,#388,.F.);
#318=ORIENTED_EDGE('',*,*,#380,.F.);
#319=ORIENTED_EDGE('',*,*,#390,.F.);
#320=ORIENTED_EDGE('',*,*,#442,.F.);
#321=ORIENTED_EDGE('',*,*,#385,.F.);
#322=ORIENTED_EDGE('',*,*,#439,.T.);
#323=ORIENTED_EDGE('',*,*,#386,.F.);
#324=ORIENTED_EDGE('',*,*,#443,.F.);
#325=ORIENTED_EDGE('',*,*,#355,.F.);
#326=ORIENTED_EDGE('',*,*,#440,.T.);
#327=ORIENTED_EDGE('',*,*,#350,.T.);
#328=ORIENTED_EDGE('',*,*,#444,.F.);
#329=ORIENTED_EDGE('',*,*,#441,.T.);
#330=ORIENTED_EDGE('',*,*,#443,.T.);
#331=ORIENTED_EDGE('',*,*,#442,.T.);
#332=ORIENTED_EDGE('',*,*,#445,.F.);
#333=ORIENTED_EDGE('',*,*,#348,.T.);
#334=ORIENTED_EDGE('',*,*,#444,.T.);
#335=ORIENTED_EDGE('',*,*,#349,.F.);
#336=ORIENTED_EDGE('',*,*,#445,.T.);
#337=ORIENTED_EDGE('',*,*,#389,.F.);
#338=EDGE_CURVE('',#446,#447,#522,.T.);
#339=EDGE_CURVE('',#447,#448,#523,.F.);
#340=EDGE_CURVE('',#448,#449,#524,.F.);
#341=EDGE_CURVE('',#449,#446,#525,.T.);
#342=EDGE_CURVE('',#450,#450,#54,.F.);
#343=EDGE_CURVE('',#451,#451,#55,.T.);
#344=EDGE_CURVE('',#452,#452,#56,.T.);
#345=EDGE_CURVE('',#453,#453,#57,.T.);
#346=EDGE_CURVE('',#454,#454,#58,.T.);
#347=EDGE_CURVE('',#455,#455,#59,.T.);
#348=EDGE_CURVE('',#456,#457,#60,.T.);
#349=EDGE_CURVE('',#456,#458,#526,.F.);
#350=EDGE_CURVE('',#459,#458,#61,.T.);
#351=EDGE_CURVE('',#459,#460,#527,.F.);
#352=EDGE_CURVE('',#461,#460,#62,.T.);
#353=EDGE_CURVE('',#461,#462,#528,.F.);
#354=EDGE_CURVE('',#463,#462,#63,.T.);
#355=EDGE_CURVE('',#463,#457,#529,.F.);
#356=EDGE_CURVE('',#464,#464,#64,.T.);
#357=EDGE_CURVE('',#465,#465,#65,.T.);
#358=EDGE_CURVE('',#466,#466,#66,.T.);
#359=EDGE_CURVE('',#467,#467,#67,.T.);
#360=EDGE_CURVE('',#468,#468,#68,.T.);
#361=EDGE_CURVE('',#469,#469,#69,.T.);
#362=EDGE_CURVE('',#470,#470,#70,.T.);
#363=EDGE_CURVE('',#471,#471,#71,.T.);
#364=EDGE_CURVE('',#472,#472,#72,.T.);
#365=EDGE_CURVE('',#473,#474,#530,.T.);
#366=EDGE_CURVE('',#473,#475,#73,.F.);
#367=EDGE_CURVE('',#475,#476,#531,.T.);
#368=EDGE_CURVE('',#476,#477,#74,.F.);
#369=EDGE_CURVE('',#477,#478,#532,.T.);
#370=EDGE_CURVE('',#478,#479,#75,.F.);
#371=EDGE_CURVE('',#480,#479,#533,.T.);
#372=EDGE_CURVE('',#480,#474,#76,.F.);
#373=EDGE_CURVE('',#481,#482,#534,.T.);
#374=EDGE_CURVE('',#482,#483,#77,.T.);
#375=EDGE_CURVE('',#483,#484,#535,.T.);
#376=EDGE_CURVE('',#484,#485,#78,.T.);
#377=EDGE_CURVE('',#485,#486,#536,.T.);
#378=EDGE_CURVE('',#486,#487,#79,.T.);
#379=EDGE_CURVE('',#487,#488,#537,.T.);
#380=EDGE_CURVE('',#488,#481,#80,.T.);
#381=EDGE_CURVE('',#489,#489,#81,.T.);
#382=EDGE_CURVE('',#490,#491,#538,.T.);
#383=EDGE_CURVE('',#491,#484,#539,.T.);
#384=EDGE_CURVE('',#483,#490,#540,.F.);
#385=EDGE_CURVE('',#481,#492,#541,.F.);
#386=EDGE_CURVE('',#492,#493,#542,.T.);
#387=EDGE_CURVE('',#493,#482,#543,.T.);
#388=EDGE_CURVE('',#487,#494,#544,.F.);
#389=EDGE_CURVE('',#494,#495,#545,.T.);
#390=EDGE_CURVE('',#495,#488,#546,.T.);
#391=EDGE_CURVE('',#475,#496,#547,.F.);
#392=EDGE_CURVE('',#496,#497,#548,.T.);
#393=EDGE_CURVE('',#497,#476,#549,.T.);
#394=EDGE_CURVE('',#498,#499,#550,.F.);
#395=EDGE_CURVE('',#499,#473,#551,.T.);
#396=EDGE_CURVE('',#474,#498,#552,.F.);
#397=EDGE_CURVE('',#479,#500,#553,.F.);
#398=EDGE_CURVE('',#500,#501,#554,.F.);
#399=EDGE_CURVE('',#501,#480,#555,.T.);
#400=EDGE_CURVE('',#477,#502,#556,.F.);
#401=EDGE_CURVE('',#502,#503,#557,.T.);
#402=EDGE_CURVE('',#503,#478,#558,.T.);
#403=EDGE_CURVE('',#485,#504,#559,.F.);
#404=EDGE_CURVE('',#504,#505,#560,.T.);
#405=EDGE_CURVE('',#505,#486,#561,.T.);
#406=EDGE_CURVE('',#506,#506,#82,.T.);
#407=EDGE_CURVE('',#507,#507,#83,.F.);
#408=EDGE_CURVE('',#508,#508,#84,.T.);
#409=EDGE_CURVE('',#509,#509,#85,.F.);
#410=EDGE_CURVE('',#510,#510,#86,.T.);
#411=EDGE_CURVE('',#511,#511,#87,.F.);
#412=EDGE_CURVE('',#512,#512,#88,.T.);
#413=EDGE_CURVE('',#513,#513,#89,.F.);
#414=EDGE_CURVE('',#514,#514,#90,.T.);
#415=EDGE_CURVE('',#515,#515,#91,.T.);
#416=EDGE_CURVE('',#516,#516,#92,.T.);
#417=EDGE_CURVE('',#517,#517,#93,.T.);
#418=EDGE_CURVE('',#518,#518,#94,.T.);
#419=EDGE_CURVE('',#519,#519,#95,.T.);
#420=EDGE_CURVE('',#520,#520,#96,.T.);
#421=EDGE_CURVE('',#521,#521,#97,.T.);
#422=EDGE_CURVE('',#496,#499,#98,.T.);
#423=EDGE_CURVE('',#498,#501,#99,.T.);
#424=EDGE_CURVE('',#499,#449,#100,.T.);
#425=EDGE_CURVE('',#446,#498,#101,.T.);
#426=EDGE_CURVE('',#496,#449,#102,.F.);
#427=EDGE_CURVE('',#446,#501,#103,.F.);
#428=EDGE_CURVE('',#497,#448,#104,.T.);
#429=EDGE_CURVE('',#502,#497,#105,.T.);
#430=EDGE_CURVE('',#500,#503,#106,.T.);
#431=EDGE_CURVE('',#447,#500,#107,.T.);
#432=EDGE_CURVE('',#502,#448,#108,.F.);
#433=EDGE_CURVE('',#447,#503,#109,.F.);
#434=EDGE_CURVE('',#504,#491,#110,.F.);
#435=EDGE_CURVE('',#490,#493,#111,.F.);
#436=EDGE_CURVE('',#462,#490,#112,.T.);
#437=EDGE_CURVE('',#491,#461,#113,.T.);
#438=EDGE_CURVE('',#504,#460,#114,.F.);
#439=EDGE_CURVE('',#463,#493,#115,.F.);
#440=EDGE_CURVE('',#505,#459,#116,.T.);
#441=EDGE_CURVE('',#494,#505,#117,.F.);
#442=EDGE_CURVE('',#492,#495,#118,.F.);
#443=EDGE_CURVE('',#457,#492,#119,.T.);
#444=EDGE_CURVE('',#494,#458,#120,.F.);
#445=EDGE_CURVE('',#456,#495,#121,.F.);
#446=VERTEX_POINT('',#1322);
#447=VERTEX_POINT('',#1323);
#448=VERTEX_POINT('',#1325);
#449=VERTEX_POINT('',#1327);
#450=VERTEX_POINT('',#1330);
#451=VERTEX_POINT('',#1332);
#452=VERTEX_POINT('',#1334);
#453=VERTEX_POINT('',#1336);
#454=VERTEX_POINT('',#1338);
#455=VERTEX_POINT('',#1340);
#456=VERTEX_POINT('',#1342);
#457=VERTEX_POINT('',#1343);
#458=VERTEX_POINT('',#1345);
#459=VERTEX_POINT('',#1347);
#460=VERTEX_POINT('',#1349);
#461=VERTEX_POINT('',#1351);
#462=VERTEX_POINT('',#1353);
#463=VERTEX_POINT('',#1355);
#464=VERTEX_POINT('',#1359);
#465=VERTEX_POINT('',#1361);
#466=VERTEX_POINT('',#1363);
#467=VERTEX_POINT('',#1365);
#468=VERTEX_POINT('',#1367);
#469=VERTEX_POINT('',#1369);
#470=VERTEX_POINT('',#1371);
#471=VERTEX_POINT('',#1373);
#472=VERTEX_POINT('',#1375);
#473=VERTEX_POINT('',#1377);
#474=VERTEX_POINT('',#1378);
#475=VERTEX_POINT('',#1380);
#476=VERTEX_POINT('',#1382);
#477=VERTEX_POINT('',#1384);
#478=VERTEX_POINT('',#1386);
#479=VERTEX_POINT('',#1388);
#480=VERTEX_POINT('',#1390);
#481=VERTEX_POINT('',#1393);
#482=VERTEX_POINT('',#1394);
#483=VERTEX_POINT('',#1396);
#484=VERTEX_POINT('',#1398);
#485=VERTEX_POINT('',#1400);
#486=VERTEX_POINT('',#1402);
#487=VERTEX_POINT('',#1404);
#488=VERTEX_POINT('',#1406);
#489=VERTEX_POINT('',#1409);
#490=VERTEX_POINT('',#1412);
#491=VERTEX_POINT('',#1413);
#492=VERTEX_POINT('',#1418);
#493=VERTEX_POINT('',#1420);
#494=VERTEX_POINT('',#1424);
#495=VERTEX_POINT('',#1426);
#496=VERTEX_POINT('',#1430);
#497=VERTEX_POINT('',#1432);
#498=VERTEX_POINT('',#1436);
#499=VERTEX_POINT('',#1437);
#500=VERTEX_POINT('',#1442);
#501=VERTEX_POINT('',#1444);
#502=VERTEX_POINT('',#1448);
#503=VERTEX_POINT('',#1450);
#504=VERTEX_POINT('',#1454);
#505=VERTEX_POINT('',#1456);
#506=VERTEX_POINT('',#1460);
#507=VERTEX_POINT('',#1463);
#508=VERTEX_POINT('',#1466);
#509=VERTEX_POINT('',#1469);
#510=VERTEX_POINT('',#1472);
#511=VERTEX_POINT('',#1475);
#512=VERTEX_POINT('',#1478);
#513=VERTEX_POINT('',#1481);
#514=VERTEX_POINT('',#1484);
#515=VERTEX_POINT('',#1487);
#516=VERTEX_POINT('',#1490);
#517=VERTEX_POINT('',#1493);
#518=VERTEX_POINT('',#1496);
#519=VERTEX_POINT('',#1499);
#520=VERTEX_POINT('',#1502);
#521=VERTEX_POINT('',#1505);
#522=LINE('',#1321,#562);
#523=LINE('',#1324,#563);
#524=LINE('',#1326,#564);
#525=LINE('',#1328,#565);
#526=LINE('',#1344,#566);
#527=LINE('',#1348,#567);
#528=LINE('',#1352,#568);
#529=LINE('',#1356,#569);
#530=LINE('',#1376,#570);
#531=LINE('',#1381,#571);
#532=LINE('',#1385,#572);
#533=LINE('',#1389,#573);
#534=LINE('',#1392,#574);
#535=LINE('',#1397,#575);
#536=LINE('',#1401,#576);
#537=LINE('',#1405,#577);
#538=LINE('',#1411,#578);
#539=LINE('',#1414,#579);
#540=LINE('',#1415,#580);
#541=LINE('',#1417,#581);
#542=LINE('',#1419,#582);
#543=LINE('',#1421,#583);
#544=LINE('',#1423,#584);
#545=LINE('',#1425,#585);
#546=LINE('',#1427,#586);
#547=LINE('',#1429,#587);
#548=LINE('',#1431,#588);
#549=LINE('',#1433,#589);
#550=LINE('',#1435,#590);
#551=LINE('',#1438,#591);
#552=LINE('',#1439,#592);
#553=LINE('',#1441,#593);
#554=LINE('',#1443,#594);
#555=LINE('',#1445,#595);
#556=LINE('',#1447,#596);
#557=LINE('',#1449,#597);
#558=LINE('',#1451,#598);
#559=LINE('',#1453,#599);
#560=LINE('',#1455,#600);
#561=LINE('',#1457,#601);
#562=VECTOR('',#1025,1.);
#563=VECTOR('',#1026,1.);
#564=VECTOR('',#1027,1.);
#565=VECTOR('',#1028,1.);
#566=VECTOR('',#1043,1.);
#567=VECTOR('',#1046,1.);
#568=VECTOR('',#1049,1.);
#569=VECTOR('',#1052,1.);
#570=VECTOR('',#1073,1.);
#571=VECTOR('',#1076,1.);
#572=VECTOR('',#1079,1.);
#573=VECTOR('',#1082,1.);
#574=VECTOR('',#1085,1.);
#575=VECTOR('',#1088,1.);
#576=VECTOR('',#1091,1.);
#577=VECTOR('',#1094,1.);
#578=VECTOR('',#1101,1.);
#579=VECTOR('',#1102,1.);
#580=VECTOR('',#1103,1.);
#581=VECTOR('',#1106,1.);
#582=VECTOR('',#1107,1.);
#583=VECTOR('',#1108,1.);
#584=VECTOR('',#1111,1.);
#585=VECTOR('',#1112,1.);
#586=VECTOR('',#1113,1.);
#587=VECTOR('',#1116,1.);
#588=VECTOR('',#1117,1.);
#589=VECTOR('',#1118,1.);
#590=VECTOR('',#1121,1.);
#591=VECTOR('',#1122,1.);
#592=VECTOR('',#1123,1.);
#593=VECTOR('',#1126,1.);
#594=VECTOR('',#1127,1.);
#595=VECTOR('',#1128,1.);
#596=VECTOR('',#1131,1.);
#597=VECTOR('',#1132,1.);
#598=VECTOR('',#1133,1.);
#599=VECTOR('',#1136,1.);
#600=VECTOR('',#1137,1.);
#601=VECTOR('',#1138,1.);
#602=EDGE_LOOP('',(#122,#123,#124,#125));
#603=EDGE_LOOP('',(#126));
#604=EDGE_LOOP('',(#127));
#605=EDGE_LOOP('',(#128));
#606=EDGE_LOOP('',(#129));
#607=EDGE_LOOP('',(#130));
#608=EDGE_LOOP('',(#131));
#609=EDGE_LOOP('',(#132,#133,#134,#135,#136,#137,#138,#139));
#610=EDGE_LOOP('',(#140));
#611=EDGE_LOOP('',(#141));
#612=EDGE_LOOP('',(#142));
#613=EDGE_LOOP('',(#143));
#614=EDGE_LOOP('',(#144));
#615=EDGE_LOOP('',(#145));
#616=EDGE_LOOP('',(#146));
#617=EDGE_LOOP('',(#147));
#618=EDGE_LOOP('',(#148));
#619=EDGE_LOOP('',(#149,#150,#151,#152,#153,#154,#155,#156));
#620=EDGE_LOOP('',(#157,#158,#159,#160,#161,#162,#163,#164));
#621=EDGE_LOOP('',(#165));
#622=EDGE_LOOP('',(#166,#167,#168,#169));
#623=EDGE_LOOP('',(#170,#171,#172,#173));
#624=EDGE_LOOP('',(#174,#175,#176,#177));
#625=EDGE_LOOP('',(#178,#179,#180,#181));
#626=EDGE_LOOP('',(#182,#183,#184,#185));
#627=EDGE_LOOP('',(#186,#187,#188,#189));
#628=EDGE_LOOP('',(#190,#191,#192,#193));
#629=EDGE_LOOP('',(#194,#195,#196,#197));
#630=EDGE_LOOP('',(#198));
#631=EDGE_LOOP('',(#199));
#632=EDGE_LOOP('',(#200));
#633=EDGE_LOOP('',(#201));
#634=EDGE_LOOP('',(#202));
#635=EDGE_LOOP('',(#203));
#636=EDGE_LOOP('',(#204));
#637=EDGE_LOOP('',(#205));
#638=EDGE_LOOP('',(#206));
#639=EDGE_LOOP('',(#207));
#640=EDGE_LOOP('',(#208));
#641=EDGE_LOOP('',(#209));
#642=EDGE_LOOP('',(#210));
#643=EDGE_LOOP('',(#211));
#644=EDGE_LOOP('',(#212));
#645=EDGE_LOOP('',(#213));
#646=EDGE_LOOP('',(#214));
#647=EDGE_LOOP('',(#215));
#648=EDGE_LOOP('',(#216));
#649=EDGE_LOOP('',(#217));
#650=EDGE_LOOP('',(#218));
#651=EDGE_LOOP('',(#219));
#652=EDGE_LOOP('',(#220));
#653=EDGE_LOOP('',(#221));
#654=EDGE_LOOP('',(#222));
#655=EDGE_LOOP('',(#223));
#656=EDGE_LOOP('',(#224));
#657=EDGE_LOOP('',(#225));
#658=EDGE_LOOP('',(#226));
#659=EDGE_LOOP('',(#227));
#660=EDGE_LOOP('',(#228));
#661=EDGE_LOOP('',(#229));
#662=EDGE_LOOP('',(#230));
#663=EDGE_LOOP('',(#231));
#664=EDGE_LOOP('',(#232));
#665=EDGE_LOOP('',(#233));
#666=EDGE_LOOP('',(#234));
#667=EDGE_LOOP('',(#235));
#668=EDGE_LOOP('',(#236));
#669=EDGE_LOOP('',(#237));
#670=EDGE_LOOP('',(#238));
#671=EDGE_LOOP('',(#239));
#672=EDGE_LOOP('',(#240));
#673=EDGE_LOOP('',(#241));
#674=EDGE_LOOP('',(#242));
#675=EDGE_LOOP('',(#243));
#676=EDGE_LOOP('',(#244));
#677=EDGE_LOOP('',(#245));
#678=EDGE_LOOP('',(#246,#247,#248,#249));
#679=EDGE_LOOP('',(#250,#251,#252,#253));
#680=EDGE_LOOP('',(#254,#255,#256,#257));
#681=EDGE_LOOP('',(#258,#259,#260));
#682=EDGE_LOOP('',(#261,#262,#263));
#683=EDGE_LOOP('',(#264,#265,#266,#267));
#684=EDGE_LOOP('',(#268,#269,#270,#271));
#685=EDGE_LOOP('',(#272,#273,#274,#275));
#686=EDGE_LOOP('',(#276,#277,#278,#279));
#687=EDGE_LOOP('',(#280,#281,#282));
#688=EDGE_LOOP('',(#283,#284,#285));
#689=EDGE_LOOP('',(#286,#287,#288,#289));
#690=EDGE_LOOP('',(#290,#291,#292,#293));
#691=EDGE_LOOP('',(#294,#295,#296,#297));
#692=EDGE_LOOP('',(#298,#299,#300,#301));
#693=EDGE_LOOP('',(#302,#303,#304,#305));
#694=EDGE_LOOP('',(#306,#307,#308,#309));
#695=EDGE_LOOP('',(#310,#311,#312,#313));
#696=EDGE_LOOP('',(#314,#315,#316,#317));
#697=EDGE_LOOP('',(#318,#319,#320,#321));
#698=EDGE_LOOP('',(#322,#323,#324,#325));
#699=EDGE_LOOP('',(#326,#327,#328,#329));
#700=EDGE_LOOP('',(#330,#331,#332,#333));
#701=EDGE_LOOP('',(#334,#335,#336,#337));
#702=FACE_BOUND('',#602,.T.);
#703=FACE_BOUND('',#603,.T.);
#704=FACE_BOUND('',#604,.T.);
#705=FACE_BOUND('',#605,.T.);
#706=FACE_BOUND('',#606,.T.);
#707=FACE_BOUND('',#607,.T.);
#708=FACE_BOUND('',#608,.T.);
#709=FACE_BOUND('',#609,.T.);
#710=FACE_BOUND('',#610,.T.);
#711=FACE_BOUND('',#611,.T.);
#712=FACE_BOUND('',#612,.T.);
#713=FACE_BOUND('',#613,.T.);
#714=FACE_BOUND('',#614,.T.);
#715=FACE_BOUND('',#615,.T.);
#716=FACE_BOUND('',#616,.T.);
#717=FACE_BOUND('',#617,.T.);
#718=FACE_BOUND('',#618,.T.);
#719=FACE_BOUND('',#619,.T.);
#720=FACE_BOUND('',#620,.T.);
#721=FACE_BOUND('',#621,.T.);
#722=FACE_BOUND('',#622,.T.);
#723=FACE_BOUND('',#623,.T.);
#724=FACE_BOUND('',#624,.T.);
#725=FACE_BOUND('',#625,.T.);
#726=FACE_BOUND('',#626,.T.);
#727=FACE_BOUND('',#627,.T.);
#728=FACE_BOUND('',#628,.T.);
#729=FACE_BOUND('',#629,.T.);
#730=FACE_BOUND('',#630,.T.);
#731=FACE_BOUND('',#631,.T.);
#732=FACE_BOUND('',#632,.T.);
#733=FACE_BOUND('',#633,.T.);
#734=FACE_BOUND('',#634,.T.);
#735=FACE_BOUND('',#635,.T.);
#736=FACE_BOUND('',#636,.T.);
#737=FACE_BOUND('',#637,.T.);
#738=FACE_BOUND('',#638,.T.);
#739=FACE_BOUND('',#639,.T.);
#740=FACE_BOUND('',#640,.T.);
#741=FACE_BOUND('',#641,.T.);
#742=FACE_BOUND('',#642,.T.);
#743=FACE_BOUND('',#643,.T.);
#744=FACE_BOUND('',#644,.T.);
#745=FACE_BOUND('',#645,.T.);
#746=FACE_BOUND('',#646,.T.);
#747=FACE_BOUND('',#647,.T.);
#748=FACE_BOUND('',#648,.T.);
#749=FACE_BOUND('',#649,.T.);
#750=FACE_BOUND('',#650,.T.);
#751=FACE_BOUND('',#651,.T.);
#752=FACE_BOUND('',#652,.T.);
#753=FACE_BOUND('',#653,.T.);
#754=FACE_BOUND('',#654,.T.);
#755=FACE_BOUND('',#655,.T.);
#756=FACE_BOUND('',#656,.T.);
#757=FACE_BOUND('',#657,.T.);
#758=FACE_BOUND('',#658,.T.);
#759=FACE_BOUND('',#659,.T.);
#760=FACE_BOUND('',#660,.T.);
#761=FACE_BOUND('',#661,.T.);
#762=FACE_BOUND('',#662,.T.);
#763=FACE_BOUND('',#663,.T.);
#764=FACE_BOUND('',#664,.T.);
#765=FACE_BOUND('',#665,.T.);
#766=FACE_BOUND('',#666,.T.);
#767=FACE_BOUND('',#667,.T.);
#768=FACE_BOUND('',#668,.T.);
#769=FACE_BOUND('',#669,.T.);
#770=FACE_BOUND('',#670,.T.);
#771=FACE_BOUND('',#671,.T.);
#772=FACE_BOUND('',#672,.T.);
#773=FACE_BOUND('',#673,.T.);
#774=FACE_BOUND('',#674,.T.);
#775=FACE_BOUND('',#675,.T.);
#776=FACE_BOUND('',#676,.T.);
#777=FACE_BOUND('',#677,.T.);
#778=FACE_BOUND('',#678,.T.);
#779=FACE_BOUND('',#679,.T.);
#780=FACE_BOUND('',#680,.T.);
#781=FACE_BOUND('',#681,.T.);
#782=FACE_BOUND('',#682,.T.);
#783=FACE_BOUND('',#683,.T.);
#784=FACE_BOUND('',#684,.T.);
#785=FACE_BOUND('',#685,.T.);
#786=FACE_BOUND('',#686,.T.);
#787=FACE_BOUND('',#687,.T.);
#788=FACE_BOUND('',#688,.T.);
#789=FACE_BOUND('',#689,.T.);
#790=FACE_BOUND('',#690,.T.);
#791=FACE_BOUND('',#691,.T.);
#792=FACE_BOUND('',#692,.T.);
#793=FACE_BOUND('',#693,.T.);
#794=FACE_BOUND('',#694,.T.);
#795=FACE_BOUND('',#695,.T.);
#796=FACE_BOUND('',#696,.T.);
#797=FACE_BOUND('',#697,.T.);
#798=FACE_BOUND('',#698,.T.);
#799=FACE_BOUND('',#699,.T.);
#800=FACE_BOUND('',#700,.T.);
#801=FACE_BOUND('',#701,.T.);
#802=PLANE('',#893);
#803=PLANE('',#904);
#804=PLANE('',#923);
#805=PLANE('',#924);
#806=PLANE('',#925);
#807=PLANE('',#926);
#808=PLANE('',#927);
#809=PLANE('',#928);
#810=PLANE('',#929);
#811=PLANE('',#930);
#812=PLANE('',#933);
#813=PLANE('',#937);
#814=PLANE('',#941);
#815=PLANE('',#945);
#816=PLANE('',#947);
#817=PLANE('',#951);
#818=PLANE('',#955);
#819=PLANE('',#959);
#820=ADVANCED_FACE('',(#702,#703,#704,#705,#706,#707,#708,#709),#802,.T.);
#821=ADVANCED_FACE('',(#710,#711,#712,#713,#714,#715,#716,#717,#718,#719,
#720,#721),#803,.F.);
#822=ADVANCED_FACE('',(#722),#804,.T.);
#823=ADVANCED_FACE('',(#723),#805,.T.);
#824=ADVANCED_FACE('',(#724),#806,.T.);
#825=ADVANCED_FACE('',(#725),#807,.T.);
#826=ADVANCED_FACE('',(#726),#808,.F.);
#827=ADVANCED_FACE('',(#727),#809,.F.);
#828=ADVANCED_FACE('',(#728),#810,.T.);
#829=ADVANCED_FACE('',(#729),#811,.T.);
#830=ADVANCED_FACE('',(#730,#731),#24,.T.);
#831=ADVANCED_FACE('',(#732,#733),#812,.T.);
#832=ADVANCED_FACE('',(#734,#735),#25,.T.);
#833=ADVANCED_FACE('',(#736,#737),#813,.T.);
#834=ADVANCED_FACE('',(#738,#739),#26,.T.);
#835=ADVANCED_FACE('',(#740,#741),#814,.T.);
#836=ADVANCED_FACE('',(#742,#743),#27,.T.);
#837=ADVANCED_FACE('',(#744,#745),#815,.T.);
#838=ADVANCED_FACE('',(#746),#816,.T.);
#839=ADVANCED_FACE('',(#747,#748),#28,.F.);
#840=ADVANCED_FACE('',(#749),#817,.T.);
#841=ADVANCED_FACE('',(#750,#751),#29,.F.);
#842=ADVANCED_FACE('',(#752),#818,.T.);
#843=ADVANCED_FACE('',(#753,#754),#30,.F.);
#844=ADVANCED_FACE('',(#755),#819,.T.);
#845=ADVANCED_FACE('',(#756,#757),#31,.F.);
#846=ADVANCED_FACE('',(#758,#759),#20,.F.);
#847=ADVANCED_FACE('',(#760,#761),#21,.F.);
#848=ADVANCED_FACE('',(#762,#763),#22,.F.);
#849=ADVANCED_FACE('',(#764,#765),#23,.F.);
#850=ADVANCED_FACE('',(#766,#767),#32,.F.);
#851=ADVANCED_FACE('',(#768,#769),#33,.F.);
#852=ADVANCED_FACE('',(#770,#771),#34,.F.);
#853=ADVANCED_FACE('',(#772,#773),#35,.F.);
#854=ADVANCED_FACE('',(#774,#775),#36,.F.);
#855=ADVANCED_FACE('',(#776,#777),#37,.F.);
#856=ADVANCED_FACE('',(#778),#38,.T.);
#857=ADVANCED_FACE('',(#779),#39,.T.);
#858=ADVANCED_FACE('',(#780),#40,.T.);
#859=ADVANCED_FACE('',(#781),#16,.T.);
#860=ADVANCED_FACE('',(#782),#17,.T.);
#861=ADVANCED_FACE('',(#783),#41,.T.);
#862=ADVANCED_FACE('',(#784),#42,.T.);
#863=ADVANCED_FACE('',(#785),#43,.T.);
#864=ADVANCED_FACE('',(#786),#44,.T.);
#865=ADVANCED_FACE('',(#787),#18,.T.);
#866=ADVANCED_FACE('',(#788),#19,.T.);
#867=ADVANCED_FACE('',(#789),#45,.T.);
#868=ADVANCED_FACE('',(#790),#46,.F.);
#869=ADVANCED_FACE('',(#791),#47,.F.);
#870=ADVANCED_FACE('',(#792),#48,.T.);
#871=ADVANCED_FACE('',(#793),#12,.T.);
#872=ADVANCED_FACE('',(#794),#13,.T.);
#873=ADVANCED_FACE('',(#795),#49,.T.);
#874=ADVANCED_FACE('',(#796),#50,.F.);
#875=ADVANCED_FACE('',(#797),#51,.F.);
#876=ADVANCED_FACE('',(#798),#52,.T.);
#877=ADVANCED_FACE('',(#799),#14,.T.);
#878=ADVANCED_FACE('',(#800),#15,.T.);
#879=ADVANCED_FACE('',(#801),#53,.T.);
#880=CLOSED_SHELL('',(#820,#821,#822,#823,#824,#825,#826,#827,#828,#829,
#830,#831,#832,#833,#834,#835,#836,#837,#838,#839,#840,#841,#842,#843,#844,
#845,#846,#847,#848,#849,#850,#851,#852,#853,#854,#855,#856,#857,#858,#859,
#860,#861,#862,#863,#864,#865,#866,#867,#868,#869,#870,#871,#872,#873,#874,
#875,#876,#877,#878,#879));
#881=STYLED_ITEM('',(#882),#889);
#882=PRESENTATION_STYLE_ASSIGNMENT((#883));
#883=SURFACE_STYLE_USAGE(.BOTH.,#884);
#884=SURFACE_SIDE_STYLE('',(#885));
#885=SURFACE_STYLE_FILL_AREA(#886);
#886=FILL_AREA_STYLE('',(#887));
#887=FILL_AREA_STYLE_COLOUR('',#888);
#888=COLOUR_RGB('',0.980392156862745,0.980392156862745,0.2);
#889=MANIFOLD_SOLID_BREP('top case',#880);
#890=SHAPE_DEFINITION_REPRESENTATION(#1570,#891);
#891=SHAPE_REPRESENTATION('top case',(#892),#1565);
#892=AXIS2_PLACEMENT_3D('',#1319,#1021,#1022);
#893=AXIS2_PLACEMENT_3D('',#1320,#1023,#1024);
#894=AXIS2_PLACEMENT_3D('',#1329,#1029,#1030);
#895=AXIS2_PLACEMENT_3D('',#1331,#1031,#1032);
#896=AXIS2_PLACEMENT_3D('',#1333,#1033,#1034);
#897=AXIS2_PLACEMENT_3D('',#1335,#1035,#1036);
#898=AXIS2_PLACEMENT_3D('',#1337,#1037,#1038);
#899=AXIS2_PLACEMENT_3D('',#1339,#1039,#1040);
#900=AXIS2_PLACEMENT_3D('',#1341,#1041,#1042);
#901=AXIS2_PLACEMENT_3D('',#1346,#1044,#1045);
#902=AXIS2_PLACEMENT_3D('',#1350,#1047,#1048);
#903=AXIS2_PLACEMENT_3D('',#1354,#1050,#1051);
#904=AXIS2_PLACEMENT_3D('',#1357,#1053,#1054);
#905=AXIS2_PLACEMENT_3D('',#1358,#1055,#1056);
#906=AXIS2_PLACEMENT_3D('',#1360,#1057,#1058);
#907=AXIS2_PLACEMENT_3D('',#1362,#1059,#1060);
#908=AXIS2_PLACEMENT_3D('',#1364,#1061,#1062);
#909=AXIS2_PLACEMENT_3D('',#1366,#1063,#1064);
#910=AXIS2_PLACEMENT_3D('',#1368,#1065,#1066);
#911=AXIS2_PLACEMENT_3D('',#1370,#1067,#1068);
#912=AXIS2_PLACEMENT_3D('',#1372,#1069,#1070);
#913=AXIS2_PLACEMENT_3D('',#1374,#1071,#1072);
#914=AXIS2_PLACEMENT_3D('',#1379,#1074,#1075);
#915=AXIS2_PLACEMENT_3D('',#1383,#1077,#1078);
#916=AXIS2_PLACEMENT_3D('',#1387,#1080,#1081);
#917=AXIS2_PLACEMENT_3D('',#1391,#1083,#1084);
#918=AXIS2_PLACEMENT_3D('',#1395,#1086,#1087);
#919=AXIS2_PLACEMENT_3D('',#1399,#1089,#1090);
#920=AXIS2_PLACEMENT_3D('',#1403,#1092,#1093);
#921=AXIS2_PLACEMENT_3D('',#1407,#1095,#1096);
#922=AXIS2_PLACEMENT_3D('',#1408,#1097,#1098);
#923=AXIS2_PLACEMENT_3D('',#1410,#1099,#1100);
#924=AXIS2_PLACEMENT_3D('',#1416,#1104,#1105);
#925=AXIS2_PLACEMENT_3D('',#1422,#1109,#1110);
#926=AXIS2_PLACEMENT_3D('',#1428,#1114,#1115);
#927=AXIS2_PLACEMENT_3D('',#1434,#1119,#1120);
#928=AXIS2_PLACEMENT_3D('',#1440,#1124,#1125);
#929=AXIS2_PLACEMENT_3D('',#1446,#1129,#1130);
#930=AXIS2_PLACEMENT_3D('',#1452,#1134,#1135);
#931=AXIS2_PLACEMENT_3D('',#1458,#1139,#1140);
#932=AXIS2_PLACEMENT_3D('',#1459,#1141,#1142);
#933=AXIS2_PLACEMENT_3D('',#1461,#1143,#1144);
#934=AXIS2_PLACEMENT_3D('',#1462,#1145,#1146);
#935=AXIS2_PLACEMENT_3D('',#1464,#1147,#1148);
#936=AXIS2_PLACEMENT_3D('',#1465,#1149,#1150);
#937=AXIS2_PLACEMENT_3D('',#1467,#1151,#1152);
#938=AXIS2_PLACEMENT_3D('',#1468,#1153,#1154);
#939=AXIS2_PLACEMENT_3D('',#1470,#1155,#1156);
#940=AXIS2_PLACEMENT_3D('',#1471,#1157,#1158);
#941=AXIS2_PLACEMENT_3D('',#1473,#1159,#1160);
#942=AXIS2_PLACEMENT_3D('',#1474,#1161,#1162);
#943=AXIS2_PLACEMENT_3D('',#1476,#1163,#1164);
#944=AXIS2_PLACEMENT_3D('',#1477,#1165,#1166);
#945=AXIS2_PLACEMENT_3D('',#1479,#1167,#1168);
#946=AXIS2_PLACEMENT_3D('',#1480,#1169,#1170);
#947=AXIS2_PLACEMENT_3D('',#1482,#1171,#1172);
#948=AXIS2_PLACEMENT_3D('',#1483,#1173,#1174);
#949=AXIS2_PLACEMENT_3D('',#1485,#1175,#1176);
#950=AXIS2_PLACEMENT_3D('',#1486,#1177,#1178);
#951=AXIS2_PLACEMENT_3D('',#1488,#1179,#1180);
#952=AXIS2_PLACEMENT_3D('',#1489,#1181,#1182);
#953=AXIS2_PLACEMENT_3D('',#1491,#1183,#1184);
#954=AXIS2_PLACEMENT_3D('',#1492,#1185,#1186);
#955=AXIS2_PLACEMENT_3D('',#1494,#1187,#1188);
#956=AXIS2_PLACEMENT_3D('',#1495,#1189,#1190);
#957=AXIS2_PLACEMENT_3D('',#1497,#1191,#1192);
#958=AXIS2_PLACEMENT_3D('',#1498,#1193,#1194);
#959=AXIS2_PLACEMENT_3D('',#1500,#1195,#1196);
#960=AXIS2_PLACEMENT_3D('',#1501,#1197,#1198);
#961=AXIS2_PLACEMENT_3D('',#1503,#1199,#1200);
#962=AXIS2_PLACEMENT_3D('',#1504,#1201,#1202);
#963=AXIS2_PLACEMENT_3D('',#1506,#1203,#1204);
#964=AXIS2_PLACEMENT_3D('',#1507,#1205,#1206);
#965=AXIS2_PLACEMENT_3D('',#1508,#1207,#1208);
#966=AXIS2_PLACEMENT_3D('',#1509,#1209,#1210);
#967=AXIS2_PLACEMENT_3D('',#1510,#1211,#1212);
#968=AXIS2_PLACEMENT_3D('',#1511,#1213,#1214);
#969=AXIS2_PLACEMENT_3D('',#1512,#1215,#1216);
#970=AXIS2_PLACEMENT_3D('',#1513,#1217,#1218);
#971=AXIS2_PLACEMENT_3D('',#1514,#1219,#1220);
#972=AXIS2_PLACEMENT_3D('',#1515,#1221,#1222);
#973=AXIS2_PLACEMENT_3D('',#1516,#1223,#1224);
#974=AXIS2_PLACEMENT_3D('',#1517,#1225,#1226);
#975=AXIS2_PLACEMENT_3D('',#1518,#1227,#1228);
#976=AXIS2_PLACEMENT_3D('',#1519,#1229,#1230);
#977=AXIS2_PLACEMENT_3D('',#1520,#1231,#1232);
#978=AXIS2_PLACEMENT_3D('',#1521,#1233,#1234);
#979=AXIS2_PLACEMENT_3D('',#1522,#1235,#1236);
#980=AXIS2_PLACEMENT_3D('',#1523,#1237,#1238);
#981=AXIS2_PLACEMENT_3D('',#1524,#1239,#1240);
#982=AXIS2_PLACEMENT_3D('',#1525,#1241,#1242);
#983=AXIS2_PLACEMENT_3D('',#1526,#1243,#1244);
#984=AXIS2_PLACEMENT_3D('',#1527,#1245,#1246);
#985=AXIS2_PLACEMENT_3D('',#1528,#1247,#1248);
#986=AXIS2_PLACEMENT_3D('',#1529,#1249,#1250);
#987=AXIS2_PLACEMENT_3D('',#1530,#1251,#1252);
#988=AXIS2_PLACEMENT_3D('',#1531,#1253,#1254);
#989=AXIS2_PLACEMENT_3D('',#1532,#1255,#1256);
#990=AXIS2_PLACEMENT_3D('',#1533,#1257,#1258);
#991=AXIS2_PLACEMENT_3D('',#1534,#1259,#1260);
#992=AXIS2_PLACEMENT_3D('',#1535,#1261,#1262);
#993=AXIS2_PLACEMENT_3D('',#1536,#1263,#1264);
#994=AXIS2_PLACEMENT_3D('',#1537,#1265,#1266);
#995=AXIS2_PLACEMENT_3D('',#1538,#1267,#1268);
#996=AXIS2_PLACEMENT_3D('',#1539,#1269,#1270);
#997=AXIS2_PLACEMENT_3D('',#1540,#1271,#1272);
#998=AXIS2_PLACEMENT_3D('',#1541,#1273,#1274);
#999=AXIS2_PLACEMENT_3D('',#1542,#1275,#1276);
#1000=AXIS2_PLACEMENT_3D('',#1543,#1277,#1278);
#1001=AXIS2_PLACEMENT_3D('',#1544,#1279,#1280);
#1002=AXIS2_PLACEMENT_3D('',#1545,#1281,#1282);
#1003=AXIS2_PLACEMENT_3D('',#1546,#1283,#1284);
#1004=AXIS2_PLACEMENT_3D('',#1547,#1285,#1286);
#1005=AXIS2_PLACEMENT_3D('',#1548,#1287,#1288);
#1006=AXIS2_PLACEMENT_3D('',#1549,#1289,#1290);
#1007=AXIS2_PLACEMENT_3D('',#1550,#1291,#1292);
#1008=AXIS2_PLACEMENT_3D('',#1551,#1293,#1294);
#1009=AXIS2_PLACEMENT_3D('',#1552,#1295,#1296);
#1010=AXIS2_PLACEMENT_3D('',#1553,#1297,#1298);
#1011=AXIS2_PLACEMENT_3D('',#1554,#1299,#1300);
#1012=AXIS2_PLACEMENT_3D('',#1555,#1301,#1302);
#1013=AXIS2_PLACEMENT_3D('',#1556,#1303,#1304);
#1014=AXIS2_PLACEMENT_3D('',#1557,#1305,#1306);
#1015=AXIS2_PLACEMENT_3D('',#1558,#1307,#1308);
#1016=AXIS2_PLACEMENT_3D('',#1559,#1309,#1310);
#1017=AXIS2_PLACEMENT_3D('',#1560,#1311,#1312);
#1018=AXIS2_PLACEMENT_3D('',#1561,#1313,#1314);
#1019=AXIS2_PLACEMENT_3D('',#1562,#1315,#1316);
#1020=AXIS2_PLACEMENT_3D('',#1563,#1317,#1318);
#1021=DIRECTION('',(0.,0.,1.));
#1022=DIRECTION('',(1.,0.,0.));
#1023=DIRECTION('',(0.,0.,1.));
#1024=DIRECTION('',(1.,0.,0.));
#1025=DIRECTION('',(0.,-1.,0.));
#1026=DIRECTION('',(-1.,0.,0.));
#1027=DIRECTION('',(1.75007563479969E-16,-1.,0.));
#1028=DIRECTION('',(-1.,0.,0.));
#1029=DIRECTION('',(0.,0.,1.));
#1030=DIRECTION('',(1.,0.,0.));
#1031=DIRECTION('',(0.,0.,1.));
#1032=DIRECTION('',(1.,0.,0.));
#1033=DIRECTION('',(0.,0.,1.));
#1034=DIRECTION('',(1.,0.,0.));
#1035=DIRECTION('',(0.,0.,1.));
#1036=DIRECTION('',(1.,0.,0.));
#1037=DIRECTION('',(0.,0.,1.));
#1038=DIRECTION('',(1.,0.,0.));
#1039=DIRECTION('',(0.,0.,1.));
#1040=DIRECTION('',(1.,0.,0.));
#1041=DIRECTION('',(0.,0.,1.));
#1042=DIRECTION('',(1.,0.,0.));
#1043=DIRECTION('',(-6.12323399573677E-17,1.,0.));
#1044=DIRECTION('',(0.,0.,1.));
#1045=DIRECTION('',(1.,0.,0.));
#1046=DIRECTION('',(1.,6.12323399573677E-17,0.));
#1047=DIRECTION('',(0.,0.,1.));
#1048=DIRECTION('',(1.,0.,0.));
#1049=DIRECTION('',(6.12323399573677E-17,-1.,0.));
#1050=DIRECTION('',(0.,0.,1.));
#1051=DIRECTION('',(1.,0.,0.));
#1052=DIRECTION('',(-1.,-6.12323399573677E-17,0.));
#1053=DIRECTION('',(0.,0.,1.));
#1054=DIRECTION('',(1.,0.,0.));
#1055=DIRECTION('',(0.,0.,-1.));
#1056=DIRECTION('',(-1.,0.,0.));
#1057=DIRECTION('',(0.,0.,-1.));
#1058=DIRECTION('',(-1.,0.,0.));
#1059=DIRECTION('',(0.,0.,-1.));
#1060=DIRECTION('',(-1.,0.,0.));
#1061=DIRECTION('',(0.,0.,-1.));
#1062=DIRECTION('',(-1.,0.,0.));
#1063=DIRECTION('',(0.,0.,-1.));
#1064=DIRECTION('',(-1.,0.,0.));
#1065=DIRECTION('',(0.,0.,-1.));
#1066=DIRECTION('',(-1.,0.,0.));
#1067=DIRECTION('',(0.,0.,-1.));
#1068=DIRECTION('',(-1.,0.,0.));
#1069=DIRECTION('',(0.,0.,-1.));
#1070=DIRECTION('',(-1.,0.,0.));
#1071=DIRECTION('',(0.,0.,-1.));
#1072=DIRECTION('',(-1.,0.,0.));
#1073=DIRECTION('',(-1.,0.,0.));
#1074=DIRECTION('',(0.,0.,1.));
#1075=DIRECTION('',(1.,0.,0.));
#1076=DIRECTION('',(1.75007563479969E-16,-1.,0.));
#1077=DIRECTION('',(0.,0.,1.));
#1078=DIRECTION('',(1.,0.,0.));
#1079=DIRECTION('',(-1.,0.,0.));
#1080=DIRECTION('',(0.,0.,1.));
#1081=DIRECTION('',(1.,0.,0.));
#1082=DIRECTION('',(0.,-1.,0.));
#1083=DIRECTION('',(0.,0.,1.));
#1084=DIRECTION('',(1.,0.,0.));
#1085=DIRECTION('',(-1.,-6.12323399573677E-17,0.));
#1086=DIRECTION('',(0.,0.,1.));
#1087=DIRECTION('',(1.,0.,0.));
#1088=DIRECTION('',(6.12323399573677E-17,-1.,0.));
#1089=DIRECTION('',(0.,0.,1.));
#1090=DIRECTION('',(1.,0.,0.));
#1091=DIRECTION('',(1.,6.12323399573677E-17,0.));
#1092=DIRECTION('',(0.,0.,1.));
#1093=DIRECTION('',(1.,0.,0.));
#1094=DIRECTION('',(-6.12323399573677E-17,1.,0.));
#1095=DIRECTION('',(0.,0.,1.));
#1096=DIRECTION('',(1.,0.,0.));
#1097=DIRECTION('',(0.,0.,1.));
#1098=DIRECTION('',(-1.,0.,0.));
#1099=DIRECTION('',(1.,6.12323399573677E-17,0.));
#1100=DIRECTION('',(-6.12323399573677E-17,1.,0.));
#1101=DIRECTION('',(6.12323399573677E-17,-1.,0.));
#1102=DIRECTION('',(0.,0.,-1.));
#1103=DIRECTION('',(0.,0.,-1.));
#1104=DIRECTION('',(6.12323399573677E-17,-1.,0.));
#1105=DIRECTION('',(1.,6.12323399573677E-17,0.));
#1106=DIRECTION('',(0.,0.,-1.));
#1107=DIRECTION('',(-1.,-6.12323399573677E-17,0.));
#1108=DIRECTION('',(0.,0.,-1.));
#1109=DIRECTION('',(-1.,-6.12323399573677E-17,0.));
#1110=DIRECTION('',(6.12323399573677E-17,-1.,0.));
#1111=DIRECTION('',(0.,0.,-1.));
#1112=DIRECTION('',(-6.12323399573677E-17,1.,0.));
#1113=DIRECTION('',(0.,0.,-1.));
#1114=DIRECTION('',(1.,1.75007563479969E-16,0.));
#1115=DIRECTION('',(-1.75007563479969E-16,1.,0.));
#1116=DIRECTION('',(0.,0.,-1.));
#1117=DIRECTION('',(1.75007563479969E-16,-1.,0.));
#1118=DIRECTION('',(0.,0.,-1.));
#1119=DIRECTION('',(0.,-1.,0.));
#1120=DIRECTION('',(0.,0.,-1.));
#1121=DIRECTION('',(-1.,0.,0.));
#1122=DIRECTION('',(0.,0.,-1.));
#1123=DIRECTION('',(0.,0.,-1.));
#1124=DIRECTION('',(1.,0.,0.));
#1125=DIRECTION('',(0.,0.,-1.));
#1126=DIRECTION('',(0.,0.,-1.));
#1127=DIRECTION('',(0.,-1.,0.));
#1128=DIRECTION('',(0.,0.,-1.));
#1129=DIRECTION('',(0.,-1.,0.));
#1130=DIRECTION('',(0.,0.,-1.));
#1131=DIRECTION('',(0.,0.,-1.));
#1132=DIRECTION('',(-1.,0.,0.));
#1133=DIRECTION('',(0.,0.,-1.));
#1134=DIRECTION('',(-6.12323399573677E-17,1.,0.));
#1135=DIRECTION('',(-1.,-6.12323399573677E-17,0.));
#1136=DIRECTION('',(0.,0.,-1.));
#1137=DIRECTION('',(1.,6.12323399573677E-17,0.));
#1138=DIRECTION('',(0.,0.,-1.));
#1139=DIRECTION('',(0.,0.,1.));
#1140=DIRECTION('',(1.,0.,0.));
#1141=DIRECTION('',(0.,0.,-1.));
#1142=DIRECTION('',(-1.,0.,0.));
#1143=DIRECTION('',(0.,0.,-1.));
#1144=DIRECTION('',(1.,0.,0.));
#1145=DIRECTION('',(0.,0.,-1.));
#1146=DIRECTION('',(-1.,0.,0.));
#1147=DIRECTION('',(0.,0.,1.));
#1148=DIRECTION('',(1.,0.,0.));
#1149=DIRECTION('',(0.,0.,-1.));
#1150=DIRECTION('',(-1.,0.,0.));
#1151=DIRECTION('',(0.,0.,-1.));
#1152=DIRECTION('',(1.,0.,0.));
#1153=DIRECTION('',(0.,0.,-1.));
#1154=DIRECTION('',(-1.,0.,0.));
#1155=DIRECTION('',(0.,0.,1.));
#1156=DIRECTION('',(1.,0.,0.));
#1157=DIRECTION('',(0.,0.,-1.));
#1158=DIRECTION('',(-1.,0.,0.));
#1159=DIRECTION('',(0.,0.,-1.));
#1160=DIRECTION('',(1.,0.,0.));
#1161=DIRECTION('',(0.,0.,-1.));
#1162=DIRECTION('',(-1.,0.,0.));
#1163=DIRECTION('',(0.,0.,1.));
#1164=DIRECTION('',(1.,0.,0.));
#1165=DIRECTION('',(0.,0.,-1.));
#1166=DIRECTION('',(-1.,0.,0.));
#1167=DIRECTION('',(0.,0.,-1.));
#1168=DIRECTION('',(1.,0.,0.));
#1169=DIRECTION('',(0.,0.,-1.));
#1170=DIRECTION('',(-1.,0.,0.));
#1171=DIRECTION('',(0.,0.,-1.));
#1172=DIRECTION('',(1.,0.,0.));
#1173=DIRECTION('',(0.,0.,1.));
#1174=DIRECTION('',(6.12323399573677E-17,-1.,0.));
#1175=DIRECTION('',(0.,0.,-1.));
#1176=DIRECTION('',(-1.,0.,0.));
#1177=DIRECTION('',(0.,0.,-1.));
#1178=DIRECTION('',(-1.,0.,0.));
#1179=DIRECTION('',(0.,0.,-1.));
#1180=DIRECTION('',(1.,0.,0.));
#1181=DIRECTION('',(0.,0.,1.));
#1182=DIRECTION('',(6.12323399573677E-17,-1.,0.));
#1183=DIRECTION('',(0.,0.,-1.));
#1184=DIRECTION('',(-1.,0.,0.));
#1185=DIRECTION('',(0.,0.,-1.));
#1186=DIRECTION('',(-1.,0.,0.));
#1187=DIRECTION('',(0.,0.,-1.));
#1188=DIRECTION('',(1.,0.,0.));
#1189=DIRECTION('',(0.,0.,1.));
#1190=DIRECTION('',(6.12323399573677E-17,-1.,0.));
#1191=DIRECTION('',(0.,0.,-1.));
#1192=DIRECTION('',(-1.,0.,0.));
#1193=DIRECTION('',(0.,0.,-1.));
#1194=DIRECTION('',(-1.,0.,0.));
#1195=DIRECTION('',(0.,0.,-1.));
#1196=DIRECTION('',(1.,0.,0.));
#1197=DIRECTION('',(0.,0.,1.));
#1198=DIRECTION('',(6.12323399573677E-17,-1.,0.));
#1199=DIRECTION('',(0.,0.,-1.));
#1200=DIRECTION('',(-1.,0.,0.));
#1201=DIRECTION('',(0.,0.,-1.));
#1202=DIRECTION('',(-1.,0.,0.));
#1203=DIRECTION('',(0.,0.,-1.));
#1204=DIRECTION('',(-1.,0.,0.));
#1205=DIRECTION('',(0.,0.,-1.));
#1206=DIRECTION('',(-1.,0.,0.));
#1207=DIRECTION('',(0.,0.,-1.));
#1208=DIRECTION('',(-1.,0.,0.));
#1209=DIRECTION('',(0.,0.,-1.));
#1210=DIRECTION('',(-1.,0.,0.));
#1211=DIRECTION('',(0.,0.,-1.));
#1212=DIRECTION('',(-1.,0.,0.));
#1213=DIRECTION('',(0.,0.,-1.));
#1214=DIRECTION('',(-1.,0.,0.));
#1215=DIRECTION('',(0.,0.,-1.));
#1216=DIRECTION('',(-1.,0.,0.));
#1217=DIRECTION('',(0.,0.,-1.));
#1218=DIRECTION('',(-1.,0.,0.));
#1219=DIRECTION('',(0.,0.,-1.));
#1220=DIRECTION('',(-1.,0.,0.));
#1221=DIRECTION('',(0.,0.,-1.));
#1222=DIRECTION('',(-1.,0.,0.));
#1223=DIRECTION('',(0.,0.,1.));
#1224=DIRECTION('',(1.,0.,0.));
#1225=DIRECTION('',(0.,0.,1.));
#1226=DIRECTION('',(1.,0.,0.));
#1227=DIRECTION('',(0.,0.,-1.));
#1228=DIRECTION('',(-1.,0.,0.));
#1229=DIRECTION('',(0.,0.,1.));
#1230=DIRECTION('',(1.,0.,0.));
#1231=DIRECTION('',(1.,0.,0.));
#1232=DIRECTION('',(0.,0.,-1.));
#1233=DIRECTION('',(1.,0.,6.93889390390722E-15));
#1234=DIRECTION('',(6.93889390390722E-15,0.,-1.));
#1235=DIRECTION('',(-1.,0.,0.));
#1236=DIRECTION('',(0.,0.,1.));
#1237=DIRECTION('',(3.46944695195361E-15,1.,0.));
#1238=DIRECTION('',(-1.,3.46944695195361E-15,0.));
#1239=DIRECTION('',(-3.4694469519536E-15,1.,0.));
#1240=DIRECTION('',(-1.,-3.4694469519536E-15,0.));
#1241=DIRECTION('',(0.,1.,0.));
#1242=DIRECTION('',(0.,0.,1.));
#1243=DIRECTION('',(0.,1.,0.));
#1244=DIRECTION('',(0.,0.,1.));
#1245=DIRECTION('',(1.75007563479969E-16,-1.,0.));
#1246=DIRECTION('',(1.,1.75007563479969E-16,0.));
#1247=DIRECTION('',(0.,-1.,0.));
#1248=DIRECTION('',(0.,0.,-1.));
#1249=DIRECTION('',(0.,0.,-1.));
#1250=DIRECTION('',(-1.,0.,0.));
#1251=DIRECTION('',(0.,0.,1.));
#1252=DIRECTION('',(1.,0.,0.));
#1253=DIRECTION('',(0.,0.,1.));
#1254=DIRECTION('',(1.,0.,0.));
#1255=DIRECTION('',(0.,0.,1.));
#1256=DIRECTION('',(1.,0.,0.));
#1257=DIRECTION('',(0.,1.,0.));
#1258=DIRECTION('',(0.,0.,1.));
#1259=DIRECTION('',(0.,-1.,0.));
#1260=DIRECTION('',(0.,0.,-1.));
#1261=DIRECTION('',(1.,0.,0.));
#1262=DIRECTION('',(0.,0.,-1.));
#1263=DIRECTION('',(1.,0.,0.));
#1264=DIRECTION('',(0.,0.,-1.));
#1265=DIRECTION('',(-1.,0.,0.));
#1266=DIRECTION('',(0.,0.,1.));
#1267=DIRECTION('',(-1.,0.,0.));
#1268=DIRECTION('',(0.,0.,1.));
#1269=DIRECTION('',(-1.,0.,0.));
#1270=DIRECTION('',(0.,0.,1.));
#1271=DIRECTION('',(0.,0.,1.));
#1272=DIRECTION('',(1.,0.,0.));
#1273=DIRECTION('',(0.,0.,1.));
#1274=DIRECTION('',(1.,0.,0.));
#1275=DIRECTION('',(0.,0.,1.));
#1276=DIRECTION('',(1.,0.,0.));
#1277=DIRECTION('',(0.,0.,1.));
#1278=DIRECTION('',(1.,0.,0.));
#1279=DIRECTION('',(6.12323399573677E-17,-1.,0.));
#1280=DIRECTION('',(1.,6.12323399573677E-17,0.));
#1281=DIRECTION('',(0.,1.,0.));
#1282=DIRECTION('',(0.,0.,1.));
#1283=DIRECTION('',(0.,-1.,0.));
#1284=DIRECTION('',(0.,0.,-1.));
#1285=DIRECTION('',(0.,0.,1.));
#1286=DIRECTION('',(1.,0.,0.));
#1287=DIRECTION('',(-1.,0.,0.));
#1288=DIRECTION('',(0.,0.,1.));
#1289=DIRECTION('',(0.,0.,1.));
#1290=DIRECTION('',(1.,0.,0.));
#1291=DIRECTION('',(-1.,0.,0.));
#1292=DIRECTION('',(0.,0.,1.));
#1293=DIRECTION('',(1.,6.12323399573677E-17,0.));
#1294=DIRECTION('',(-6.12323399573677E-17,1.,0.));
#1295=DIRECTION('',(1.,0.,0.));
#1296=DIRECTION('',(0.,0.,-1.));
#1297=DIRECTION('',(0.,0.,1.));
#1298=DIRECTION('',(1.,0.,0.));
#1299=DIRECTION('',(0.,0.,1.));
#1300=DIRECTION('',(1.,0.,0.));
#1301=DIRECTION('',(0.,0.,1.));
#1302=DIRECTION('',(1.,0.,0.));
#1303=DIRECTION('',(0.,0.,1.));
#1304=DIRECTION('',(1.,0.,0.));
#1305=DIRECTION('',(-1.,-6.12323399573677E-17,0.));
#1306=DIRECTION('',(6.12323399573677E-17,-1.,0.));
#1307=DIRECTION('',(1.,0.,0.));
#1308=DIRECTION('',(0.,0.,-1.));
#1309=DIRECTION('',(0.,0.,1.));
#1310=DIRECTION('',(1.,0.,0.));
#1311=DIRECTION('',(0.,-1.,0.));
#1312=DIRECTION('',(0.,0.,-1.));
#1313=DIRECTION('',(0.,0.,1.));
#1314=DIRECTION('',(1.,0.,0.));
#1315=DIRECTION('',(0.,1.,0.));
#1316=DIRECTION('',(0.,0.,1.));
#1317=DIRECTION('',(-6.12323399573677E-17,1.,0.));
#1318=DIRECTION('',(-1.,-6.12323399573677E-17,0.));
#1319=CARTESIAN_POINT('',(0.,0.,0.));
#1320=CARTESIAN_POINT('',(-0.0034023714065552,-0.0205986630171538,0.03385));
#1321=CARTESIAN_POINT('',(-0.0637773714065552,-0.0800723260343075,0.03385));
#1322=CARTESIAN_POINT('',(-0.0637773714065552,0.036875,0.03385));
#1323=CARTESIAN_POINT('',(-0.0637773714065552,-0.0780723260343075,0.03385));
#1324=CARTESIAN_POINT('',(-0.0034023714065552,-0.0780723260343075,0.03385));
#1325=CARTESIAN_POINT('',(0.0569726285934448,-0.0780723260343075,0.03385));
#1326=CARTESIAN_POINT('',(0.0569726285934448,-0.0205986630171538,0.03385));
#1327=CARTESIAN_POINT('',(0.0569726285934448,0.036875,0.03385));
#1328=CARTESIAN_POINT('',(-0.0657773714065552,0.036875,0.03385));
#1329=CARTESIAN_POINT('',(-0.043329910317589,-0.0525006160343075,0.03385));
#1330=CARTESIAN_POINT('',(-0.039079910317589,-0.0525006160343075,0.03385));
#1331=CARTESIAN_POINT('',(-0.0332699114065552,-0.0626006160343075,0.03385));
#1332=CARTESIAN_POINT('',(-0.0290199114065552,-0.0626006160343075,0.03385));
#1333=CARTESIAN_POINT('',(-0.0232099124955214,-0.0525006160343075,0.03385));
#1334=CARTESIAN_POINT('',(-0.0189599124955214,-0.0525006160343075,0.03385));
#1335=CARTESIAN_POINT('',(0.0373600892221587,-0.0587105891357248,0.03385));
#1336=CARTESIAN_POINT('',(0.0416100892221587,-0.0587105891357248,0.03385));
#1337=CARTESIAN_POINT('',(0.0373600892221587,-0.0460105891357248,0.03385));
#1338=CARTESIAN_POINT('',(0.0416100892221587,-0.0460105891357248,0.03385));
#1339=CARTESIAN_POINT('',(-0.0332699114065552,-0.0424006160343075,0.03385));
#1340=CARTESIAN_POINT('',(-0.0290199114065552,-0.0424006160343075,0.03385));
#1341=CARTESIAN_POINT('',(0.0369726285934448,0.026875,0.03385));
#1342=CARTESIAN_POINT('',(0.0409726285934448,0.026875,0.03385));
#1343=CARTESIAN_POINT('',(0.0369726285934448,0.030875,0.03385));
#1344=CARTESIAN_POINT('',(0.0409726285934448,-0.0205986630171538,0.03385));
#1345=CARTESIAN_POINT('',(0.0409726285934448,-0.026875,0.03385));
#1346=CARTESIAN_POINT('',(0.0369726285934448,-0.026875,0.03385));
#1347=CARTESIAN_POINT('',(0.0369726285934448,-0.030875,0.03385));
#1348=CARTESIAN_POINT('',(-0.0034023714065552,-0.030875,0.03385));
#1349=CARTESIAN_POINT('',(-0.0437773714065552,-0.030875,0.03385));
#1350=CARTESIAN_POINT('',(-0.0437773714065552,-0.026875,0.03385));
#1351=CARTESIAN_POINT('',(-0.0477773714065552,-0.026875,0.03385));
#1352=CARTESIAN_POINT('',(-0.0477773714065552,-0.0205986630171538,0.03385));
#1353=CARTESIAN_POINT('',(-0.0477773714065552,0.026875,0.03385));
#1354=CARTESIAN_POINT('',(-0.0437773714065552,0.026875,0.03385));
#1355=CARTESIAN_POINT('',(-0.0437773714065552,0.030875,0.03385));
#1356=CARTESIAN_POINT('',(-0.0034023714065552,0.030875,0.03385));
#1357=CARTESIAN_POINT('',(-0.0034023714065552,-0.0205986630171538,0.03085));
#1358=CARTESIAN_POINT('',(-0.0332699114065552,-0.0424006160343075,0.03085));
#1359=CARTESIAN_POINT('',(-0.0375199114065552,-0.0424006160343075,0.03085));
#1360=CARTESIAN_POINT('',(-0.0332699114065552,-0.0626006160343075,0.03085));
#1361=CARTESIAN_POINT('',(-0.0375199114065552,-0.0626006160343075,0.03085));
#1362=CARTESIAN_POINT('',(-0.0232099124955214,-0.0525006160343075,0.03085));
#1363=CARTESIAN_POINT('',(-0.0274599124955214,-0.0525006160343075,0.03085));
#1364=CARTESIAN_POINT('',(0.0373600892221587,-0.0587105891357248,0.03085));
#1365=CARTESIAN_POINT('',(0.0331100892221587,-0.0587105891357248,0.03085));
#1366=CARTESIAN_POINT('',(0.0373600892221587,-0.0460105891357248,0.03085));
#1367=CARTESIAN_POINT('',(0.0331100892221587,-0.0460105891357248,0.03085));
#1368=CARTESIAN_POINT('',(0.051125,-0.027875,0.03085));
#1369=CARTESIAN_POINT('',(0.047625,-0.027875,0.03085));
#1370=CARTESIAN_POINT('',(0.051125,0.027875,0.03085));
#1371=CARTESIAN_POINT('',(0.047625,0.027875,0.03085));
#1372=CARTESIAN_POINT('',(-0.051125,0.027875,0.03085));
#1373=CARTESIAN_POINT('',(-0.054625,0.027875,0.03085));
#1374=CARTESIAN_POINT('',(-0.051125,-0.027875,0.03085));
#1375=CARTESIAN_POINT('',(-0.054625,-0.027875,0.03085));
#1376=CARTESIAN_POINT('',(-0.00340237140655521,0.038875,0.03085));
#1377=CARTESIAN_POINT('',(0.0569726285934448,0.038875,0.03085));
#1378=CARTESIAN_POINT('',(-0.0637773714065552,0.038875,0.03085));
#1379=CARTESIAN_POINT('',(0.0569726285934448,0.036875,0.03085));
#1380=CARTESIAN_POINT('',(0.0589726285934448,0.036875,0.03085));
#1381=CARTESIAN_POINT('',(0.0589726285934448,-0.0205986630171538,0.03085));
#1382=CARTESIAN_POINT('',(0.0589726285934448,-0.0780723260343075,0.03085));
#1383=CARTESIAN_POINT('',(0.0569726285934448,-0.0780723260343075,0.03085));
#1384=CARTESIAN_POINT('',(0.0569726285934448,-0.0800723260343075,0.03085));
#1385=CARTESIAN_POINT('',(-0.0034023714065552,-0.0800723260343075,0.03085));
#1386=CARTESIAN_POINT('',(-0.0637773714065552,-0.0800723260343075,0.03085));
#1387=CARTESIAN_POINT('',(-0.0637773714065552,-0.0780723260343075,0.03085));
#1388=CARTESIAN_POINT('',(-0.0657773714065552,-0.0780723260343075,0.03085));
#1389=CARTESIAN_POINT('',(-0.0657773714065552,-0.0205986630171538,0.03085));
#1390=CARTESIAN_POINT('',(-0.0657773714065552,0.036875,0.03085));
#1391=CARTESIAN_POINT('',(-0.0637773714065552,0.036875,0.03085));
#1392=CARTESIAN_POINT('',(0.0389726285934448,0.028875,0.03085));
#1393=CARTESIAN_POINT('',(0.0369726285934448,0.028875,0.03085));
#1394=CARTESIAN_POINT('',(-0.0437773714065552,0.028875,0.03085));
#1395=CARTESIAN_POINT('',(-0.0437773714065552,0.026875,0.03085));
#1396=CARTESIAN_POINT('',(-0.0457773714065552,0.026875,0.03085));
#1397=CARTESIAN_POINT('',(-0.0457773714065552,0.028875,0.03085));
#1398=CARTESIAN_POINT('',(-0.0457773714065552,-0.026875,0.03085));
#1399=CARTESIAN_POINT('',(-0.0437773714065552,-0.026875,0.03085));
#1400=CARTESIAN_POINT('',(-0.0437773714065552,-0.028875,0.03085));
#1401=CARTESIAN_POINT('',(-0.0457773714065552,-0.028875,0.03085));
#1402=CARTESIAN_POINT('',(0.0369726285934448,-0.028875,0.03085));
#1403=CARTESIAN_POINT('',(0.0369726285934448,-0.026875,0.03085));
#1404=CARTESIAN_POINT('',(0.0389726285934448,-0.026875,0.03085));
#1405=CARTESIAN_POINT('',(0.0389726285934448,-0.028875,0.03085));
#1406=CARTESIAN_POINT('',(0.0389726285934448,0.026875,0.03085));
#1407=CARTESIAN_POINT('',(0.0369726285934448,0.026875,0.03085));
#1408=CARTESIAN_POINT('',(-0.043329910317589,-0.0525006160343075,0.03085));
#1409=CARTESIAN_POINT('',(-0.047579910317589,-0.0525006160343075,0.03085));
#1410=CARTESIAN_POINT('',(-0.0457773714065552,0.028875,0.03385));
#1411=CARTESIAN_POINT('',(-0.0457773714065552,0.028875,0.03185));
#1412=CARTESIAN_POINT('',(-0.0457773714065552,0.026875,0.03185));
#1413=CARTESIAN_POINT('',(-0.0457773714065552,-0.026875,0.03185));
#1414=CARTESIAN_POINT('',(-0.0457773714065552,-0.026875,0.03085));
#1415=CARTESIAN_POINT('',(-0.0457773714065552,0.026875,0.03385));
#1416=CARTESIAN_POINT('',(0.0389726285934448,0.028875,0.03385));
#1417=CARTESIAN_POINT('',(0.0369726285934448,0.028875,0.03385));
#1418=CARTESIAN_POINT('',(0.0369726285934448,0.028875,0.03185));
#1419=CARTESIAN_POINT('',(0.0389726285934448,0.028875,0.03185));
#1420=CARTESIAN_POINT('',(-0.0437773714065552,0.028875,0.03185));
#1421=CARTESIAN_POINT('',(-0.0437773714065552,0.028875,0.03085));
#1422=CARTESIAN_POINT('',(0.0389726285934448,-0.028875,0.03385));
#1423=CARTESIAN_POINT('',(0.0389726285934448,-0.026875,0.03385));
#1424=CARTESIAN_POINT('',(0.0389726285934448,-0.026875,0.03185));
#1425=CARTESIAN_POINT('',(0.0389726285934448,-0.028875,0.03185));
#1426=CARTESIAN_POINT('',(0.0389726285934448,0.026875,0.03185));
#1427=CARTESIAN_POINT('',(0.0389726285934448,0.026875,0.03085));
#1428=CARTESIAN_POINT('',(0.0589726285934448,-0.0205986630171538,0.03385));
#1429=CARTESIAN_POINT('',(0.0589726285934448,0.036875,0.03385));
#1430=CARTESIAN_POINT('',(0.0589726285934448,0.036875,0.03185));
#1431=CARTESIAN_POINT('',(0.0589726285934448,-0.0205986630171538,0.03185));
#1432=CARTESIAN_POINT('',(0.0589726285934448,-0.0780723260343075,0.03185));
#1433=CARTESIAN_POINT('',(0.0589726285934448,-0.0780723260343075,0.03385));
#1434=CARTESIAN_POINT('',(-0.00340237140655521,0.038875,0.03385));
#1435=CARTESIAN_POINT('',(0.0589726285934448,0.038875,0.03185));
#1436=CARTESIAN_POINT('',(-0.0637773714065552,0.038875,0.03185));
#1437=CARTESIAN_POINT('',(0.0569726285934448,0.038875,0.03185));
#1438=CARTESIAN_POINT('',(0.0569726285934448,0.038875,0.03085));
#1439=CARTESIAN_POINT('',(-0.0637773714065552,0.038875,0.03385));
#1440=CARTESIAN_POINT('',(-0.0657773714065552,-0.0205986630171538,0.03385));
#1441=CARTESIAN_POINT('',(-0.0657773714065552,-0.0780723260343075,0.03385));
#1442=CARTESIAN_POINT('',(-0.0657773714065552,-0.0780723260343075,0.03185));
#1443=CARTESIAN_POINT('',(-0.0657773714065552,0.038875,0.03185));
#1444=CARTESIAN_POINT('',(-0.0657773714065552,0.036875,0.03185));
#1445=CARTESIAN_POINT('',(-0.0657773714065552,0.036875,0.03385));
#1446=CARTESIAN_POINT('',(-0.0034023714065552,-0.0800723260343075,0.03385));
#1447=CARTESIAN_POINT('',(0.0569726285934448,-0.0800723260343075,0.03385));
#1448=CARTESIAN_POINT('',(0.0569726285934448,-0.0800723260343075,0.03185));
#1449=CARTESIAN_POINT('',(-0.0034023714065552,-0.0800723260343075,0.03185));
#1450=CARTESIAN_POINT('',(-0.0637773714065552,-0.0800723260343075,0.03185));
#1451=CARTESIAN_POINT('',(-0.0637773714065552,-0.0800723260343075,0.03085));
#1452=CARTESIAN_POINT('',(-0.0457773714065552,-0.028875,0.03385));
#1453=CARTESIAN_POINT('',(-0.0437773714065552,-0.028875,0.03385));
#1454=CARTESIAN_POINT('',(-0.0437773714065552,-0.028875,0.03185));
#1455=CARTESIAN_POINT('',(-0.0457773714065552,-0.028875,0.03185));
#1456=CARTESIAN_POINT('',(0.0369726285934448,-0.028875,0.03185));
#1457=CARTESIAN_POINT('',(0.0369726285934448,-0.028875,0.03085));
#1458=CARTESIAN_POINT('',(-0.051125,-0.027875,0.0263));
#1459=CARTESIAN_POINT('',(-0.051125,-0.027875,0.0263));
#1460=CARTESIAN_POINT('',(-0.054625,-0.027875,0.0263));
#1461=CARTESIAN_POINT('',(-0.0034023714065552,-0.0205986630171538,0.0263));
#1462=CARTESIAN_POINT('',(-0.051125,-0.027875,0.0263));
#1463=CARTESIAN_POINT('',(-0.054125,-0.027875,0.0263));
#1464=CARTESIAN_POINT('',(-0.051125,0.027875,0.0263));
#1465=CARTESIAN_POINT('',(-0.051125,0.027875,0.0263));
#1466=CARTESIAN_POINT('',(-0.054625,0.027875,0.0263));
#1467=CARTESIAN_POINT('',(-0.0034023714065552,-0.0205986630171538,0.0263));
#1468=CARTESIAN_POINT('',(-0.051125,0.027875,0.0263));
#1469=CARTESIAN_POINT('',(-0.054125,0.027875,0.0263));
#1470=CARTESIAN_POINT('',(0.051125,0.027875,0.0263));
#1471=CARTESIAN_POINT('',(0.051125,0.027875,0.0263));
#1472=CARTESIAN_POINT('',(0.047625,0.027875,0.0263));
#1473=CARTESIAN_POINT('',(-0.0034023714065552,-0.0205986630171538,0.0263));
#1474=CARTESIAN_POINT('',(0.051125,0.027875,0.0263));
#1475=CARTESIAN_POINT('',(0.048125,0.027875,0.0263));
#1476=CARTESIAN_POINT('',(0.051125,-0.027875,0.0263));
#1477=CARTESIAN_POINT('',(0.051125,-0.027875,0.0263));
#1478=CARTESIAN_POINT('',(0.047625,-0.027875,0.0263));
#1479=CARTESIAN_POINT('',(-0.0034023714065552,-0.0205986630171538,0.0263));
#1480=CARTESIAN_POINT('',(0.051125,-0.027875,0.0263));
#1481=CARTESIAN_POINT('',(0.048125,-0.027875,0.0263));
#1482=CARTESIAN_POINT('',(0.,0.,0.0323));
#1483=CARTESIAN_POINT('',(-0.051125,-0.027875,0.0323));
#1484=CARTESIAN_POINT('',(-0.051125,-0.029875,0.0323));
#1485=CARTESIAN_POINT('',(-0.051125,-0.027875,0.0323));
#1486=CARTESIAN_POINT('',(-0.051125,-0.027875,0.0273));
#1487=CARTESIAN_POINT('',(-0.053125,-0.027875,0.0273));
#1488=CARTESIAN_POINT('',(0.,0.,0.0323));
#1489=CARTESIAN_POINT('',(-0.051125,0.027875,0.0323));
#1490=CARTESIAN_POINT('',(-0.051125,0.025875,0.0323));
#1491=CARTESIAN_POINT('',(-0.051125,0.027875,0.0323));
#1492=CARTESIAN_POINT('',(-0.051125,0.027875,0.0273));
#1493=CARTESIAN_POINT('',(-0.053125,0.027875,0.0273));
#1494=CARTESIAN_POINT('',(0.,0.,0.0323));
#1495=CARTESIAN_POINT('',(0.051125,0.027875,0.0323));
#1496=CARTESIAN_POINT('',(0.051125,0.025875,0.0323));
#1497=CARTESIAN_POINT('',(0.051125,0.027875,0.0323));
#1498=CARTESIAN_POINT('',(0.051125,0.027875,0.0273));
#1499=CARTESIAN_POINT('',(0.049125,0.027875,0.0273));
#1500=CARTESIAN_POINT('',(0.,0.,0.0323));
#1501=CARTESIAN_POINT('',(0.051125,-0.027875,0.0323));
#1502=CARTESIAN_POINT('',(0.051125,-0.029875,0.0323));
#1503=CARTESIAN_POINT('',(0.051125,-0.027875,0.0323));
#1504=CARTESIAN_POINT('',(0.051125,-0.027875,0.0273));
#1505=CARTESIAN_POINT('',(0.049125,-0.027875,0.0273));
#1506=CARTESIAN_POINT('',(0.051125,0.027875,0.0273));
#1507=CARTESIAN_POINT('',(0.051125,-0.027875,0.0273));
#1508=CARTESIAN_POINT('',(-0.051125,-0.027875,0.0273));
#1509=CARTESIAN_POINT('',(-0.051125,0.027875,0.0273));
#1510=CARTESIAN_POINT('',(0.0373600892221587,-0.0460105891357248,0.05585));
#1511=CARTESIAN_POINT('',(0.0373600892221587,-0.0587105891357248,0.05585));
#1512=CARTESIAN_POINT('',(-0.0232099124955214,-0.0525006160343075,0.05585));
#1513=CARTESIAN_POINT('',(-0.0332699114065552,-0.0626006160343075,0.05585));
#1514=CARTESIAN_POINT('',(-0.043329910317589,-0.0525006160343075,0.05585));
#1515=CARTESIAN_POINT('',(-0.0332699114065552,-0.0424006160343075,0.05585));
#1516=CARTESIAN_POINT('',(0.0569726285934448,0.036875,0.03385));
#1517=CARTESIAN_POINT('',(0.0569726285934448,0.036875,0.03185));
#1518=CARTESIAN_POINT('',(-0.0637773714065552,0.036875,0.03385));
#1519=CARTESIAN_POINT('',(-0.0637773714065552,0.036875,0.03185));
#1520=CARTESIAN_POINT('',(-0.0034023714065552,0.036875,0.03185));
#1521=CARTESIAN_POINT('',(0.0569726285934448,0.036875,0.03185));
#1522=CARTESIAN_POINT('',(-0.0637773714065552,0.036875,0.03185));
#1523=CARTESIAN_POINT('',(0.0569726285934448,0.036875,0.03185));
#1524=CARTESIAN_POINT('',(0.0569726285934448,0.036875,0.03185));
#1525=CARTESIAN_POINT('',(-0.0637773714065552,0.036875,0.03185));
#1526=CARTESIAN_POINT('',(-0.0637773714065552,0.036875,0.03185));
#1527=CARTESIAN_POINT('',(0.0569726285934448,-0.0205986630171538,0.03185));
#1528=CARTESIAN_POINT('',(0.0569726285934448,-0.0780723260343075,0.03185));
#1529=CARTESIAN_POINT('',(0.0569726285934448,-0.0780723260343075,0.03385));
#1530=CARTESIAN_POINT('',(0.0569726285934448,-0.0780723260343075,0.03185));
#1531=CARTESIAN_POINT('',(-0.0637773714065552,-0.0780723260343075,0.03385));
#1532=CARTESIAN_POINT('',(-0.0637773714065552,-0.0780723260343075,0.03185));
#1533=CARTESIAN_POINT('',(-0.0637773714065552,-0.0205986630171538,0.03185));
#1534=CARTESIAN_POINT('',(-0.0637773714065552,-0.0780723260343075,0.03185));
#1535=CARTESIAN_POINT('',(0.0569726285934448,-0.0780723260343075,0.03185));
#1536=CARTESIAN_POINT('',(0.0569726285934448,-0.0780723260343075,0.03185));
#1537=CARTESIAN_POINT('',(-0.0637773714065552,-0.0780723260343075,0.03185));
#1538=CARTESIAN_POINT('',(-0.0637773714065552,-0.0780723260343075,0.03185));
#1539=CARTESIAN_POINT('',(-0.0034023714065552,-0.0780723260343075,0.03185));
#1540=CARTESIAN_POINT('',(-0.0437773714065552,-0.026875,0.03385));
#1541=CARTESIAN_POINT('',(-0.0437773714065552,-0.026875,0.03185));
#1542=CARTESIAN_POINT('',(-0.0437773714065552,0.026875,0.03385));
#1543=CARTESIAN_POINT('',(-0.0437773714065552,0.026875,0.03185));
#1544=CARTESIAN_POINT('',(-0.0477773714065552,0.028875,0.03185));
#1545=CARTESIAN_POINT('',(-0.0477773714065552,0.026875,0.03185));
#1546=CARTESIAN_POINT('',(-0.0477773714065552,-0.026875,0.03185));
#1547=CARTESIAN_POINT('',(-0.0437773714065552,-0.026875,0.03185));
#1548=CARTESIAN_POINT('',(-0.0437773714065552,-0.030875,0.03185));
#1549=CARTESIAN_POINT('',(-0.0437773714065552,0.026875,0.03185));
#1550=CARTESIAN_POINT('',(-0.0437773714065552,0.030875,0.03185));
#1551=CARTESIAN_POINT('',(-0.0457773714065552,-0.030875,0.03185));
#1552=CARTESIAN_POINT('',(0.0369726285934448,-0.030875,0.03185));
#1553=CARTESIAN_POINT('',(0.0369726285934448,-0.026875,0.03385));
#1554=CARTESIAN_POINT('',(0.0369726285934448,-0.026875,0.03185));
#1555=CARTESIAN_POINT('',(0.0369726285934448,0.026875,0.03385));
#1556=CARTESIAN_POINT('',(0.0369726285934448,0.026875,0.03185));
#1557=CARTESIAN_POINT('',(0.0389726285934448,0.030875,0.03185));
#1558=CARTESIAN_POINT('',(0.0369726285934448,0.030875,0.03185));
#1559=CARTESIAN_POINT('',(0.0369726285934448,-0.026875,0.03185));
#1560=CARTESIAN_POINT('',(0.0409726285934448,-0.026875,0.03185));
#1561=CARTESIAN_POINT('',(0.0369726285934448,0.026875,0.03185));
#1562=CARTESIAN_POINT('',(0.0409726285934448,0.026875,0.03185));
#1563=CARTESIAN_POINT('',(0.0409726285934448,-0.028875,0.03185));
#1564=MECHANICAL_DESIGN_GEOMETRIC_PRESENTATION_REPRESENTATION('',(#881),
#1565);
#1565=(
GEOMETRIC_REPRESENTATION_CONTEXT(3)
GLOBAL_UNCERTAINTY_ASSIGNED_CONTEXT((#1566))
GLOBAL_UNIT_ASSIGNED_CONTEXT((#1569,#1568,#1567))
REPRESENTATION_CONTEXT('top case','TOP_LEVEL_ASSEMBLY_PART')
);
#1566=UNCERTAINTY_MEASURE_WITH_UNIT(LENGTH_MEASURE(1.E-8),#1569,
'DISTANCE_ACCURACY_VALUE','Maximum Tolerance applied to model');
#1567=(
NAMED_UNIT(*)
SI_UNIT($,.STERADIAN.)
SOLID_ANGLE_UNIT()
);
#1568=(
NAMED_UNIT(*)
PLANE_ANGLE_UNIT()
SI_UNIT($,.RADIAN.)
);
#1569=(
LENGTH_UNIT()
NAMED_UNIT(*)
SI_UNIT($,.METRE.)
);
#1570=PRODUCT_DEFINITION_SHAPE('','',#1571);
#1571=PRODUCT_DEFINITION('','',#1573,#1572);
#1572=PRODUCT_DEFINITION_CONTEXT('',#1579,'design');
#1573=PRODUCT_DEFINITION_FORMATION_WITH_SPECIFIED_SOURCE('','',#1575,
 .NOT_KNOWN.);
#1574=PRODUCT_RELATED_PRODUCT_CATEGORY('','',(#1575));
#1575=PRODUCT('top case','top case','top case',(#1577));
#1576=PRODUCT_CATEGORY('','');
#1577=PRODUCT_CONTEXT('',#1579,'mechanical');
#1578=APPLICATION_PROTOCOL_DEFINITION('international standard',
'ap242_managed_model_based_3d_engineering',2020,#1579);
#1579=APPLICATION_CONTEXT('managed model based 3d engineering');
ENDSEC;
END-ISO-10303-21;
